<?xml version="1.0" standalone="yes"?>
<svg xmlns="http://www.w3.org/2000/svg" width="57" height="82">
<path style="fill:#fcfcfc; stroke:none;" d="M0 0L0 82L57 82L57 0L0 0z"/>
<path style="fill:#9f9f9f; stroke:none;" d="M1 2L1 80L2 80L2 26L1 2z"/>
<path style="fill:#2e2e2e; stroke:none;" d="M2 2L2 3L29 3L2 2z"/>
<path style="fill:#565656; stroke:none;" d="M29 2L29 3L32 3L29 2z"/>
<path style="fill:#9f9f9f; stroke:none;" d="M32.6667 2.33334L33.3333 2.66666L32.6667 2.33334z"/>
<path style="fill:#020202; stroke:none;" d="M2 3L2 79L14 79C14 73.8578 11.7366 61.4702 15.6034 57.6034C18.6907 54.5161 26.038 56.1408 30 55.9606C37.132 55.6364 44.8958 52.7073 49.3619 46.9097C59.0492 34.3343 56.5283 11.8318 41 5.4753C29.3222 0.694962 14.3794 3 2 3z"/>
<path style="fill:#2e2e2e; stroke:none;" d="M34.6667 3.33334L35.3333 3.66666L34.6667 3.33334z"/>
<path style="fill:#565656; stroke:none;" d="M36 3L37 4L36 3z"/>
<path style="fill:#9f9f9f; stroke:none;" d="M37 3L38 4L37 3z"/>
<path style="fill:#2e2e2e; stroke:none;" d="M38 4L39 5L38 4z"/>
<path style="fill:#565656; stroke:none;" d="M39 4L40 5L39 4z"/>
<path style="fill:#9f9f9f; stroke:none;" d="M40 4L41 5L40 4z"/>
<path style="fill:#2e2e2e; stroke:none;" d="M41 5L42 6L41 5z"/>
<path style="fill:#9f9f9f; stroke:none;" d="M42 5L43 6L42 5z"/>
<path style="fill:#2e2e2e; stroke:none;" d="M43 6L44 7L43 6z"/>
<path style="fill:#9f9f9f; stroke:none;" d="M44 6L45 7L44 6z"/>
<path style="fill:#565656; stroke:none;" d="M45 7L46 8L45 7z"/>
<path style="fill:#2e2e2e; stroke:none;" d="M46 8L47 9L46 8z"/>
<path style="fill:#9f9f9f; stroke:none;" d="M47 8L48 9L47 8M48 9L49 10L48 9M49 10L51 12L49 10z"/>
<path style="fill:#2e2e2e; stroke:none;" d="M49 11L50 12L49 11M50 12L51 13L50 12z"/>
<path style="fill:#9f9f9f; stroke:none;" d="M51 13L52 14L51 13z"/>
<path style="fill:#565656; stroke:none;" d="M14 14L14 44L15 44L14 14z"/>
<path style="fill:#fcfcfc; stroke:none;" d="M15 14L15 44C20.8151 44 28.6584 45.3546 33.9568 42.5432C42.4328 38.0458 43.4028 23.4266 35.892 17.6528C30.4706 13.4851 21.4886 14.0007 15 14z"/>
<path style="fill:#9f9f9f; stroke:none;" d="M25 14L25 15L29 15L25 14z"/>
<path style="fill:#565656; stroke:none;" d="M29 14L30 15L29 14z"/>
<path style="fill:#2e2e2e; stroke:none;" d="M30 14L31 15L30 14z"/>
<path style="fill:#9f9f9f; stroke:none;" d="M32 15L33 16L32 15z"/>
<path style="fill:#565656; stroke:none;" d="M33 15L34 16L33 15M52 15L53 16L52 15z"/>
<path style="fill:#9f9f9f; stroke:none;" d="M34 16L35 17L34 16z"/>
<path style="fill:#565656; stroke:none;" d="M35 16L36 17L35 16z"/>
<path style="fill:#9f9f9f; stroke:none;" d="M53.3333 16.6667L53.6667 17.3333L53.3333 16.6667M36 17L39 20L36 17z"/>
<path style="fill:#2e2e2e; stroke:none;" d="M37 17L38 18L37 17M38 18L39 19L38 18M53 18L54 19L53 18z"/>
<path style="fill:#565656; stroke:none;" d="M39 20L40 21L39 20z"/>
<path style="fill:#9f9f9f; stroke:none;" d="M54 20L55 21L54 20M39 21L40 22L39 21z"/>
<path style="fill:#2e2e2e; stroke:none;" d="M40 21L41 22L40 21z"/>
<path style="fill:#565656; stroke:none;" d="M54 21L55 22L54 21M40 22L41 23L40 22z"/>
<path style="fill:#2e2e2e; stroke:none;" d="M54.3333 22.6667L54.6667 23.3333L54.3333 22.6667z"/>
<path style="fill:#9f9f9f; stroke:none;" d="M40.3333 23.6667L40.6667 24.3333L40.3333 23.6667z"/>
<path style="fill:#2e2e2e; stroke:none;" d="M41 24L41 27L42 27L41 24z"/>
<path style="fill:#9f9f9f; stroke:none;" d="M55 26L55 30L56 30L55 26z"/>
<path style="fill:#565656; stroke:none;" d="M41 27L41 30L42 30L41 27z"/>
<path style="fill:#2e2e2e; stroke:none;" d="M41 30L41 34L42 34L41 30z"/>
<path style="fill:#9f9f9f; stroke:none;" d="M40.3333 33.6667L40.6667 34.3333L40.3333 33.6667z"/>
<path style="fill:#2e2e2e; stroke:none;" d="M54.3333 33.6667L54.6667 34.3333L54.3333 33.6667z"/>
<path style="fill:#565656; stroke:none;" d="M40 35L41 36L40 35M54 35L55 36L54 35z"/>
<path style="fill:#9f9f9f; stroke:none;" d="M39 36L40 37L39 36z"/>
<path style="fill:#2e2e2e; stroke:none;" d="M40 36L41 37L40 36z"/>
<path style="fill:#9f9f9f; stroke:none;" d="M54 36L55 37L54 36z"/>
<path style="fill:#565656; stroke:none;" d="M39 37L40 38L39 37z"/>
<path style="fill:#9f9f9f; stroke:none;" d="M38 38L39 39L38 38z"/>
<path style="fill:#2e2e2e; stroke:none;" d="M39 38L40 39L39 38M53 38L54 39L53 38M38 39L39 40L38 39z"/>
<path style="fill:#565656; stroke:none;" d="M53 39L54 40L53 39M37 40L38 41L37 40z"/>
<path style="fill:#9f9f9f; stroke:none;" d="M53 40L54 41L53 40z"/>
<path style="fill:#2e2e2e; stroke:none;" d="M36 41L37 42L36 41M52 41L53 42L52 41z"/>
<path style="fill:#9f9f9f; stroke:none;" d="M34 42L35 43L34 42z"/>
<path style="fill:#2e2e2e; stroke:none;" d="M35 42L36 43L35 42z"/>
<path style="fill:#9f9f9f; stroke:none;" d="M52 42L53 43L52 42M32 43L33 44L32 43z"/>
<path style="fill:#2e2e2e; stroke:none;" d="M33 43L34 44L33 43M51 43L52 44L51 43M14 44L15 45L14 44z"/>
<path style="fill:#9f9f9f; stroke:none;" d="M15 44L15 45L29 45L15 44z"/>
<path style="fill:#565656; stroke:none;" d="M29 44L30 45L29 44z"/>
<path style="fill:#9f9f9f; stroke:none;" d="M51 44L52 45L51 44z"/>
<path style="fill:#2e2e2e; stroke:none;" d="M50 45L51 46L50 45z"/>
<path style="fill:#9f9f9f; stroke:none;" d="M50 46L51 47L50 46M49 47L50 48L49 47M48 48L49 49L48 48M47 49L48 50L47 49z"/>
<path style="fill:#2e2e2e; stroke:none;" d="M45 50L46 51L45 50z"/>
<path style="fill:#9f9f9f; stroke:none;" d="M46 50L47 51L46 50z"/>
<path style="fill:#2e2e2e; stroke:none;" d="M44 51L45 52L44 51z"/>
<path style="fill:#565656; stroke:none;" d="M43 52L44 53L43 52z"/>
<path style="fill:#2e2e2e; stroke:none;" d="M40 53L41 54L40 53z"/>
<path style="fill:#565656; stroke:none;" d="M41 53L42 54L41 53z"/>
<path style="fill:#2e2e2e; stroke:none;" d="M38 54L39 55L38 54z"/>
<path style="fill:#9f9f9f; stroke:none;" d="M39 54L40 55L39 54z"/>
<path style="fill:#2e2e2e; stroke:none;" d="M34 55L35 56L34 55z"/>
<path style="fill:#565656; stroke:none;" d="M35 55L36 56L35 55z"/>
<path style="fill:#9f9f9f; stroke:none;" d="M36.6667 55.3333L37.3333 55.6667L36.6667 55.3333z"/>
<path style="fill:#2e2e2e; stroke:none;" d="M15 56L15 57L28 57L15 56z"/>
<path style="fill:#565656; stroke:none;" d="M28 56L28 57L32 57L28 56z"/>
<path style="fill:#9f9f9f; stroke:none;" d="M32 56L33 57L32 56z"/>
<path style="fill:#565656; stroke:none;" d="M14 57L14 80L15 80L14 57z"/>
<path style="fill:#2e2e2e; stroke:none;" d="M2 79L2 80L14 80L2 79z"/>
</svg>
