<?xml version="1.0" standalone="yes"?>
<svg xmlns="http://www.w3.org/2000/svg" width="513" height="82">
<path style="fill:#fcfcfc; stroke:none;" d="M0 0L0 82L513 82L513 0L0 0z"/>
<path style="fill:#9b9b9b; stroke:none;" d="M347 1L348 2L347 1z"/>
<path style="fill:#5a5a5a; stroke:none;" d="M348 1L349 2L348 1z"/>
<path style="fill:#303030; stroke:none;" d="M349 1L349 2L359 2L349 1z"/>
<path style="fill:#5a5a5a; stroke:none;" d="M359 1L359 2L362 2L359 1z"/>
<path style="fill:#9b9b9b; stroke:none;" d="M362 1L363 2L362 1M1 2L1 80L2 80L2 26L1 2z"/>
<path style="fill:#303030; stroke:none;" d="M2 2L2 3L22 3L2 2z"/>
<path style="fill:#020202; stroke:none;" d="M2 3L2 79L14 79C14 73.8578 11.7366 61.4702 15.6034 57.6034C18.6905 54.5163 26.0381 56.1405 30 55.9606C37.2791 55.6302 44.8003 52.8391 49.3619 46.9097C52.209 43.2088 53.5686 38.5256 54.3843 34C60.4852 0.150085 24.3153 3 2 3z"/>
<path style="fill:#303030; stroke:none;" d="M24 2L24 3L29 3L24 2z"/>
<path style="fill:#5a5a5a; stroke:none;" d="M29 2L29 3L32 3L29 2z"/>
<path style="fill:#9b9b9b; stroke:none;" d="M32.6667 2.33334L33.3333 2.66666L32.6667 2.33334z"/>
<path style="fill:#5a5a5a; stroke:none;" d="M83 2L84 3L83 2z"/>
<path style="fill:#303030; stroke:none;" d="M84 2L84 3L94 3L84 2z"/>
<path style="fill:#020202; stroke:none;" d="M83 3L62 79L75 79C75.8618 74.8356 76.5766 67.6918 79.7276 64.6034C82.9734 61.4221 101.028 61.4178 104.272 64.6034C107.346 67.6213 108.064 74.9184 109 79L122 79L106.421 24L99.4869 3.73766L83 3z"/>
<path style="fill:#303030; stroke:none;" d="M95 2L95 3L98 3L95 2M99 2L101 4L99 2z"/>
<path style="fill:#5a5a5a; stroke:none;" d="M100 2L101 3L100 2z"/>
<path style="fill:#9b9b9b; stroke:none;" d="M131 2L132 3L131 2z"/>
<path style="fill:#020202; stroke:none;" d="M132 2L132 79L144 79L145 50L159.671 51.9475L172.699 77.9722L187 79L172 48C187.067 40.1784 189.442 13.3456 172.999 5.40278C160.416 -0.675652 145.222 5.148 132 2z"/>
<path style="fill:#303030; stroke:none;" d="M133 2L133 3L157 3L133 2M158 2L158 3L163 3L158 2z"/>
<path style="fill:#5a5a5a; stroke:none;" d="M163.667 2.33334L164.333 2.66666L163.667 2.33334z"/>
<path style="fill:#9b9b9b; stroke:none;" d="M165.667 2.33334L166.333 2.66666L165.667 2.33334z"/>
<path style="fill:#5a5a5a; stroke:none;" d="M194 2L195 3L194 2z"/>
<path style="fill:#303030; stroke:none;" d="M195 2L194 14L195 14L195 2z"/>
<path style="fill:#020202; stroke:none;" d="M196 2L195 14L217 14L217 79L229 79L229 14L252 14L250.397 3.08179L236 3L196 2z"/>
<path style="fill:#303030; stroke:none;" d="M197 2L197 3L245 3C232.586 -2.20927 210.526 2 197 2M246.667 2.33334L247.333 2.66666L246.667 2.33334M251 2L252 3L251 2z"/>
<path style="fill:#9b9b9b; stroke:none;" d="M264 2L265 3L264 2z"/>
<path style="fill:#303030; stroke:none;" d="M265.667 2.33334L266.333 2.66666L265.667 2.33334z"/>
<path style="fill:#020202; stroke:none;" d="M265 13L281.397 14.6034L283 26L283 56L281.397 67.3966L265 69L265 79L312 79L312 69L296.603 67.3966L295 53L295 13L312 13L312 2L279 3L266.603 3.26852L265 13z"/>
<path style="fill:#303030; stroke:none;" d="M269 2L269 3L310 3C299.25 -1.51085 280.696 2 269 2z"/>
<path style="fill:#5a5a5a; stroke:none;" d="M312 2L313 3L312 2z"/>
<path style="fill:#9b9b9b; stroke:none;" d="M343 2L344 3L343 2z"/>
<path style="fill:#5a5a5a; stroke:none;" d="M344 2L345 3L344 2z"/>
<path style="fill:#303030; stroke:none;" d="M345 2L346 3L345 2z"/>
<path style="fill:#020202; stroke:none;" d="M330 64L329 77C341.161 79.5088 354.896 82.4572 367 77.8704C378.176 73.6354 383.068 59.2144 376.297 49C369.486 38.725 347.239 35.7028 344.452 23.9961C339.979 5.2088 366.281 17.5951 372 20C373.775 17.6597 377.812 14.2192 377.794 11.0934C377.768 6.71714 370.26 4.56655 367 3.59105C357.073 0.620422 342.029 0.121323 334.939 9.10494C332.659 11.994 331.393 15.3476 331.093 19C328.972 44.8597 356.078 39.256 365.022 56.0154C367.965 61.5315 363.134 66.7344 358 68.3472C348.913 71.2021 338.521 66.7727 330 64z"/>
<path style="fill:#303030; stroke:none;" d="M363.667 2.33334L364.333 2.66666L363.667 2.33334z"/>
<path style="fill:#5a5a5a; stroke:none;" d="M365 2L366 3L365 2z"/>
<path style="fill:#9b9b9b; stroke:none;" d="M366 2L367 3L366 2z"/>
<path style="fill:#5a5a5a; stroke:none;" d="M411 2L412 3L411 2z"/>
<path style="fill:#303030; stroke:none;" d="M412 2L412 3L422 3L412 2z"/>
<path style="fill:#020202; stroke:none;" d="M411 3L390 79L403 79C403.875 74.762 404.426 67.7217 407.703 64.6034C411.015 61.4511 428.994 61.3837 432.272 64.6034C435.346 67.6213 436.064 74.9184 437 79L450 79L434.576 24L427.49 3.73766L411 3z"/>
<path style="fill:#303030; stroke:none;" d="M423 2L423 3L426 3L423 2M427 2L429 4L427 2z"/>
<path style="fill:#5a5a5a; stroke:none;" d="M428 2L429 3L428 2M460 2L460 79L461 79L461 26L460 2z"/>
<path style="fill:#020202; stroke:none;" d="M461 2L461 79L472 79C472 60.0792 468.616 37.414 473 19L475 19L492 79L510 79L510 2L500 2L498 63L496 63L478 2L461 2z"/>
<path style="fill:#303030; stroke:none;" d="M462 2L462 3L477 3L462 2M478 2L479 3L478 2z"/>
<path style="fill:#9b9b9b; stroke:none;" d="M479 2L480 3L479 2z"/>
<path style="fill:#5a5a5a; stroke:none;" d="M498 2L499 3L498 2z"/>
<path style="fill:#303030; stroke:none;" d="M499 2L500 3L499 2M501 2L501 3L509 3L501 2z"/>
<path style="fill:#5a5a5a; stroke:none;" d="M510 2L510 80L511 80L511 26L510 2z"/>
<path style="fill:#303030; stroke:none;" d="M34.6667 3.33334L35.3333 3.66666L34.6667 3.33334z"/>
<path style="fill:#5a5a5a; stroke:none;" d="M36 3L37 4L36 3z"/>
<path style="fill:#9b9b9b; stroke:none;" d="M37 3L38 4L37 3z"/>
<path style="fill:#303030; stroke:none;" d="M167.667 3.33334L168.333 3.66666L167.667 3.33334z"/>
<path style="fill:#5a5a5a; stroke:none;" d="M169 3L170 4L169 3z"/>
<path style="fill:#9b9b9b; stroke:none;" d="M170 3L171 4L170 3z"/>
<path style="fill:#5a5a5a; stroke:none;" d="M264 3L264 13L265 13L264 3z"/>
<path style="fill:#303030; stroke:none;" d="M312 3L312 13L295 13L295 14C303.272 14 317.412 15.8986 312 3z"/>
<path style="fill:#9b9b9b; stroke:none;" d="M313 3L314 4L313 3M341 3L342 4L341 3z"/>
<path style="fill:#303030; stroke:none;" d="M342 3L343 4L342 3M366.667 3.33334L367.333 3.66666L366.667 3.33334z"/>
<path style="fill:#5a5a5a; stroke:none;" d="M368 3L369 4L368 3z"/>
<path style="fill:#9b9b9b; stroke:none;" d="M369 3L370 4L369 3z"/>
<path style="fill:#5a5a5a; stroke:none;" d="M479 3L480 4L479 3z"/>
<path style="fill:#9b9b9b; stroke:none;" d="M497.333 3.66666L497.667 4.33334L497.333 3.66666z"/>
<path style="fill:#303030; stroke:none;" d="M498 3L498 62L499 62L499 22L498 3M38 4L39 5L38 4z"/>
<path style="fill:#5a5a5a; stroke:none;" d="M39 4L40 5L39 4z"/>
<path style="fill:#9b9b9b; stroke:none;" d="M40 4L41 5L40 4M82 4L83 5L82 4z"/>
<path style="fill:#5a5a5a; stroke:none;" d="M171 4L172 5L171 4z"/>
<path style="fill:#9b9b9b; stroke:none;" d="M172 4L173 5L172 4M339 4L340 5L339 4z"/>
<path style="fill:#303030; stroke:none;" d="M340 4L341 5L340 4z"/>
<path style="fill:#5a5a5a; stroke:none;" d="M370 4L371 5L370 4z"/>
<path style="fill:#9b9b9b; stroke:none;" d="M371 4L372 5L371 4M410 4L411 5L410 4M429.333 4.66666L429.667 5.33334L429.333 4.66666z"/>
<path style="fill:#303030; stroke:none;" d="M479.333 4.66666L479.667 5.33334L479.333 4.66666M41 5L42 6L41 5z"/>
<path style="fill:#9b9b9b; stroke:none;" d="M42 5L43 6L42 5z"/>
<path style="fill:#5a5a5a; stroke:none;" d="M82 5L83 6L82 5z"/>
<path style="fill:#9b9b9b; stroke:none;" d="M101 5L102 6L101 5M131 5L131 78L132 78L132 28L131 5z"/>
<path style="fill:#303030; stroke:none;" d="M173 5L174 6L173 5z"/>
<path style="fill:#9b9b9b; stroke:none;" d="M174 5L175 6L174 5M313 5L314 6L313 5M337 5L338 6L337 5z"/>
<path style="fill:#5a5a5a; stroke:none;" d="M338 5L339 6L338 5M372 5L373 6L372 5z"/>
<path style="fill:#9b9b9b; stroke:none;" d="M373 5L374 6L373 5z"/>
<path style="fill:#5a5a5a; stroke:none;" d="M410 5L411 6L410 5z"/>
<path style="fill:#9b9b9b; stroke:none;" d="M480.333 5.66666L480.667 6.33334L480.333 5.66666z"/>
<path style="fill:#303030; stroke:none;" d="M43 6L44 7L43 6z"/>
<path style="fill:#9b9b9b; stroke:none;" d="M44 6L45 7L44 6z"/>
<path style="fill:#303030; stroke:none;" d="M82 6L83 7L82 6M101 6L102 7L101 6z"/>
<path style="fill:#5a5a5a; stroke:none;" d="M175 6L176 7L175 6z"/>
<path style="fill:#9b9b9b; stroke:none;" d="M336 6L337 7L336 6z"/>
<path style="fill:#5a5a5a; stroke:none;" d="M374 6L375 7L374 6z"/>
<path style="fill:#303030; stroke:none;" d="M410 6L411 7L410 6M429 6L430 7L429 6z"/>
<path style="fill:#9b9b9b; stroke:none;" d="M497 6L497 51L498 51C498 38.258 501.91 17.7012 497 6z"/>
<path style="fill:#5a5a5a; stroke:none;" d="M45 7L46 8L45 7z"/>
<path style="fill:#303030; stroke:none;" d="M176 7L177 8L176 7z"/>
<path style="fill:#9b9b9b; stroke:none;" d="M177 7L178 8L177 7M335 7L333 10L335 7z"/>
<path style="fill:#303030; stroke:none;" d="M375 7L376 8L375 7z"/>
<path style="fill:#9b9b9b; stroke:none;" d="M376 7L377 8L376 7z"/>
<path style="fill:#5a5a5a; stroke:none;" d="M480 7L481 8L480 7z"/>
<path style="fill:#303030; stroke:none;" d="M46 8L47 9L46 8z"/>
<path style="fill:#9b9b9b; stroke:none;" d="M47 8L48 9L47 8M81 8L82 9L81 8M102 8L103 9L102 8M178 8L179 9L178 8M313 8L314 9L313 8z"/>
<path style="fill:#303030; stroke:none;" d="M335 8L336 9L335 8z"/>
<path style="fill:#9b9b9b; stroke:none;" d="M377 8L378 9L377 8M409 8L410 9L409 8M430 8L431 9L430 8z"/>
<path style="fill:#303030; stroke:none;" d="M480 8L481 9L480 8z"/>
<path style="fill:#9b9b9b; stroke:none;" d="M48 9L49 10L48 9z"/>
<path style="fill:#5a5a5a; stroke:none;" d="M81 9L82 10L81 9M102 9L103 10L102 9z"/>
<path style="fill:#9b9b9b; stroke:none;" d="M179 9L180 10L179 9z"/>
<path style="fill:#303030; stroke:none;" d="M334 9L335 10L334 9z"/>
<path style="fill:#5a5a5a; stroke:none;" d="M378 9L379 10L378 9M409 9L410 10L409 9M430 9L431 10L430 9z"/>
<path style="fill:#9b9b9b; stroke:none;" d="M481 9L482 10L481 9M49 10L50 11L49 10z"/>
<path style="fill:#303030; stroke:none;" d="M102 10L103 11L102 10z"/>
<path style="fill:#9b9b9b; stroke:none;" d="M180 10L182 12L180 10M313 10L314 11L313 10z"/>
<path style="fill:#5a5a5a; stroke:none;" d="M333 10L334 11L333 10M379 10L380 11L379 10M481.333 10.6667L481.667 11.3333L481.333 10.6667z"/>
<path style="fill:#9b9b9b; stroke:none;" d="M80 11L81 12L80 11z"/>
<path style="fill:#303030; stroke:none;" d="M180 11L181 12L180 11z"/>
<path style="fill:#9b9b9b; stroke:none;" d="M332 11L333 12L332 11M379 11L380 12L379 11M408 11L409 12L408 11z"/>
<path style="fill:#303030; stroke:none;" d="M50 12L51 13L50 12z"/>
<path style="fill:#5a5a5a; stroke:none;" d="M80 12L81 13L80 12z"/>
<path style="fill:#9b9b9b; stroke:none;" d="M103 12L104 13L103 12z"/>
<path style="fill:#5a5a5a; stroke:none;" d="M181 12L182 13L181 12z"/>
<path style="fill:#9b9b9b; stroke:none;" d="M313 12L314 13L313 12z"/>
<path style="fill:#5a5a5a; stroke:none;" d="M332 12L333 13L332 12z"/>
<path style="fill:#9b9b9b; stroke:none;" d="M378 12L379 13L378 12z"/>
<path style="fill:#5a5a5a; stroke:none;" d="M408 12L409 13L408 12z"/>
<path style="fill:#9b9b9b; stroke:none;" d="M431 12L432 13L431 12z"/>
<path style="fill:#303030; stroke:none;" d="M481 12L482 13L481 12z"/>
<path style="fill:#9b9b9b; stroke:none;" d="M482.333 12.6667L482.667 13.3333L482.333 12.6667M51 13L52 14L51 13z"/>
<path style="fill:#303030; stroke:none;" d="M80 13L81 14L80 13M103 13L104 14L103 13z"/>
<path style="fill:#9b9b9b; stroke:none;" d="M182 13L183 14L182 13M264 13L265 14L264 13z"/>
<path style="fill:#303030; stroke:none;" d="M265 13L265 14L282 14L265 13z"/>
<path style="fill:#5a5a5a; stroke:none;" d="M312 13L313 14L312 13z"/>
<path style="fill:#9b9b9b; stroke:none;" d="M331 13L332 14L331 13z"/>
<path style="fill:#303030; stroke:none;" d="M350 13L351 14L350 13z"/>
<path style="fill:#5a5a5a; stroke:none;" d="M351 13L352 14L351 13z"/>
<path style="fill:#9b9b9b; stroke:none;" d="M352 13L352 14L358 14L352 13z"/>
<path style="fill:#5a5a5a; stroke:none;" d="M358 13L359 14L358 13z"/>
<path style="fill:#303030; stroke:none;" d="M359 13L360 14L359 13z"/>
<path style="fill:#5a5a5a; stroke:none;" d="M377 13L378 14L377 13z"/>
<path style="fill:#303030; stroke:none;" d="M408 13L409 14L408 13M431 13L432 14L431 13z"/>
<path style="fill:#5a5a5a; stroke:none;" d="M14 14L14 44L15 44L14 14z"/>
<path style="fill:#fcfcfc; stroke:none;" d="M15 14L15 44C20.8151 44 28.6584 45.3546 33.9568 42.5432C42.4328 38.0458 43.4028 23.4266 35.892 17.6528C30.4706 13.4851 21.4886 14.0007 15 14z"/>
<path style="fill:#9b9b9b; stroke:none;" d="M25 14L25 15L29 15L25 14z"/>
<path style="fill:#5a5a5a; stroke:none;" d="M29 14L30 15L29 14z"/>
<path style="fill:#303030; stroke:none;" d="M30 14L31 15L30 14M144 14L144 39L145 39L144 14z"/>
<path style="fill:#fcfcfc; stroke:none;" d="M145 14L145 38C150.717 38 159.804 39.7201 164.956 36.9722C171.707 33.3716 171.898 20.9494 165.891 16.5995C160.488 12.6872 151.281 14 145 14z"/>
<path style="fill:#9b9b9b; stroke:none;" d="M159 14L159 15L162 15L159 14z"/>
<path style="fill:#5a5a5a; stroke:none;" d="M162 14L163 15L162 14z"/>
<path style="fill:#303030; stroke:none;" d="M163 14L164 15L163 14z"/>
<path style="fill:#5a5a5a; stroke:none;" d="M182 14L183 15L182 14z"/>
<path style="fill:#9b9b9b; stroke:none;" d="M216 14L216 80L217 80L217 35L216 14z"/>
<path style="fill:#303030; stroke:none;" d="M229 14L230 15L229 14M282 14L282 68L265 68L265 69C269.167 69 277.988 70.6723 281.397 67.9722C284.351 65.6324 283 58.3155 283 55C283 43.3179 286.507 24.7419 282 14z"/>
<path style="fill:#9b9b9b; stroke:none;" d="M295 14L295 67L296 67L296 31L295 14z"/>
<path style="fill:#5a5a5a; stroke:none;" d="M331 14L332 15L331 14M348 14L349 15L348 14z"/>
<path style="fill:#9b9b9b; stroke:none;" d="M349 14L350 15L349 14M360 14L361 15L360 14z"/>
<path style="fill:#5a5a5a; stroke:none;" d="M361 14L362 15L361 14z"/>
<path style="fill:#303030; stroke:none;" d="M362 14L363 15L362 14z"/>
<path style="fill:#5a5a5a; stroke:none;" d="M376 14L377 15L376 14M482 14L483 15L482 14z"/>
<path style="fill:#9b9b9b; stroke:none;" d="M32 15L33 16L32 15z"/>
<path style="fill:#5a5a5a; stroke:none;" d="M33 15L34 16L33 15M52 15L53 16L52 15z"/>
<path style="fill:#9b9b9b; stroke:none;" d="M79 15L80 16L79 15M104 15L105 16L104 15z"/>
<path style="fill:#5a5a5a; stroke:none;" d="M165 15L166 16L165 15z"/>
<path style="fill:#303030; stroke:none;" d="M182 15L183 16L182 15z"/>
<path style="fill:#9b9b9b; stroke:none;" d="M183.333 15.6667L183.667 16.3333L183.333 15.6667z"/>
<path style="fill:#5a5a5a; stroke:none;" d="M229 15L229 80L230 80L230 36L229 15z"/>
<path style="fill:#303030; stroke:none;" d="M331 15L332 16L331 15M346 15L347 16L346 15z"/>
<path style="fill:#9b9b9b; stroke:none;" d="M347 15L348 16L347 15M363 15L364 16L363 15z"/>
<path style="fill:#303030; stroke:none;" d="M364 15L365 16L364 15M375 15L376 16L375 15z"/>
<path style="fill:#9b9b9b; stroke:none;" d="M407 15L408 16L407 15M432 15L433 16L432 15z"/>
<path style="fill:#303030; stroke:none;" d="M482 15L483 16L482 15z"/>
<path style="fill:#9b9b9b; stroke:none;" d="M34 16L35 17L34 16z"/>
<path style="fill:#5a5a5a; stroke:none;" d="M35 16L36 17L35 16z"/>
<path style="fill:#9b9b9b; stroke:none;" d="M53.3333 16.6667L53.6667 17.3333L53.3333 16.6667z"/>
<path style="fill:#303030; stroke:none;" d="M79 16L80 17L79 16z"/>
<path style="fill:#5a5a5a; stroke:none;" d="M104 16L105 17L104 16z"/>
<path style="fill:#9b9b9b; stroke:none;" d="M166 16L169 19L166 16z"/>
<path style="fill:#303030; stroke:none;" d="M167 16L168 17L167 16z"/>
<path style="fill:#9b9b9b; stroke:none;" d="M330.333 16.6667L330.667 17.3333L330.333 16.6667M346 16L347 17L346 16z"/>
<path style="fill:#5a5a5a; stroke:none;" d="M365 16L366 17L365 16z"/>
<path style="fill:#303030; stroke:none;" d="M374 16L373 18L374 16M407 16L408 17L407 16z"/>
<path style="fill:#5a5a5a; stroke:none;" d="M432 16L433 17L432 16z"/>
<path style="fill:#9b9b9b; stroke:none;" d="M483 16L484 17L483 16M36 17L38 19L36 17z"/>
<path style="fill:#303030; stroke:none;" d="M37 17L38 18L37 17z"/>
<path style="fill:#9b9b9b; stroke:none;" d="M91.6667 17.3333L92.3333 17.6667L91.6667 17.3333z"/>
<path style="fill:#303030; stroke:none;" d="M104 17L105 18L104 17M168 17L169 18L168 17z"/>
<path style="fill:#5a5a5a; stroke:none;" d="M183 17L184 18L183 17z"/>
<path style="fill:#9b9b9b; stroke:none;" d="M345 17L346 18L345 17M366 17L367 18L366 17z"/>
<path style="fill:#303030; stroke:none;" d="M367 17L368 18L367 17z"/>
<path style="fill:#9b9b9b; stroke:none;" d="M374 17L375 18L374 17M419.667 17.3333L420.333 17.6667L419.667 17.3333z"/>
<path style="fill:#303030; stroke:none;" d="M432 17L433 18L432 17z"/>
<path style="fill:#5a5a5a; stroke:none;" d="M483 17L484 18L483 17z"/>
<path style="fill:#303030; stroke:none;" d="M53 18L54 19L53 18z"/>
<path style="fill:#9b9b9b; stroke:none;" d="M78 18L79 19L78 18z"/>
<path style="fill:#fcfcfc; stroke:none;" d="M91 18L83 51L101 51L93 18L91 18z"/>
<path style="fill:#9b9b9b; stroke:none;" d="M105 18L106 19L105 18z"/>
<path style="fill:#303030; stroke:none;" d="M183 18L184 19L183 18z"/>
<path style="fill:#9b9b9b; stroke:none;" d="M184 18L184 21L185 21L184 18z"/>
<path style="fill:#5a5a5a; stroke:none;" d="M330 18L330 22L331 22L330 18M344.333 18.6667L344.667 19.3333L344.333 18.6667M368 18L369 19L368 18z"/>
<path style="fill:#9b9b9b; stroke:none;" d="M373 18L374 19L373 18M406 18L407 19L406 18z"/>
<path style="fill:#fcfcfc; stroke:none;" d="M419 18L411 51L429 51L421 18L419 18z"/>
<path style="fill:#9b9b9b; stroke:none;" d="M433 18L434 19L433 18z"/>
<path style="fill:#303030; stroke:none;" d="M483.333 18.6667L483.667 19.3333L483.333 18.6667z"/>
<path style="fill:#9b9b9b; stroke:none;" d="M38 19L39 20L38 19z"/>
<path style="fill:#5a5a5a; stroke:none;" d="M78 19L79 20L78 19z"/>
<path style="fill:#303030; stroke:none;" d="M90 19L91 20L90 19M93 19L94 20L93 19z"/>
<path style="fill:#5a5a5a; stroke:none;" d="M105 19L106 20L105 19M169 19L170 20L169 19z"/>
<path style="fill:#9b9b9b; stroke:none;" d="M369 19L370 20L369 19M372 19L373 20L372 19z"/>
<path style="fill:#5a5a5a; stroke:none;" d="M406 19L407 20L406 19z"/>
<path style="fill:#303030; stroke:none;" d="M418 19L419 20L418 19M421 19L422 20L421 19z"/>
<path style="fill:#5a5a5a; stroke:none;" d="M433 19L434 20L433 19M473.667 19.3333L474.333 19.6667L473.667 19.3333z"/>
<path style="fill:#9b9b9b; stroke:none;" d="M484.333 19.6667L484.667 20.3333L484.333 19.6667z"/>
<path style="fill:#5a5a5a; stroke:none;" d="M39 20L40 21L39 20z"/>
<path style="fill:#9b9b9b; stroke:none;" d="M54 20L55 21L54 20z"/>
<path style="fill:#303030; stroke:none;" d="M78 20L79 21L78 20z"/>
<path style="fill:#5a5a5a; stroke:none;" d="M90 20L91 21L90 20M93 20L94 21L93 20z"/>
<path style="fill:#303030; stroke:none;" d="M105 20L106 21L105 20z"/>
<path style="fill:#9b9b9b; stroke:none;" d="M169 20L170 21L169 20z"/>
<path style="fill:#303030; stroke:none;" d="M170 20L171 21L170 20z"/>
<path style="fill:#9b9b9b; stroke:none;" d="M344 20L344 25L345 25L344 20M370.667 20.3333L371.333 20.6667L370.667 20.3333z"/>
<path style="fill:#303030; stroke:none;" d="M406 20L407 21L406 20z"/>
<path style="fill:#5a5a5a; stroke:none;" d="M418 20L419 21L418 20M421 20L422 21L421 20z"/>
<path style="fill:#303030; stroke:none;" d="M433 20L434 21L433 20M472 20L472 79L461 79L461 80C464.003 80 469.853 81.0719 471.972 78.3966C474.423 75.3017 473 67.7313 473 64C473 51.5323 476.807 31.4559 472 20M475 20L476 21L475 20z"/>
<path style="fill:#9b9b9b; stroke:none;" d="M39 21L40 22L39 21z"/>
<path style="fill:#303030; stroke:none;" d="M40 21L41 22L40 21z"/>
<path style="fill:#5a5a5a; stroke:none;" d="M54 21L55 22L54 21z"/>
<path style="fill:#9b9b9b; stroke:none;" d="M90 21L91 22L90 21M93 21L94 22L93 21z"/>
<path style="fill:#5a5a5a; stroke:none;" d="M170 21L171 22L170 21M184 21L184 25L185 25L184 21z"/>
<path style="fill:#9b9b9b; stroke:none;" d="M418 21L419 22L418 21M421 21L422 22L421 21M473 21L473 79L474 79L474 40L473 21z"/>
<path style="fill:#5a5a5a; stroke:none;" d="M475 21L476 22L475 21M484 21L485 22L484 21M40 22L41 23L40 22z"/>
<path style="fill:#303030; stroke:none;" d="M54.3333 22.6667L54.6667 23.3333L54.3333 22.6667z"/>
<path style="fill:#9b9b9b; stroke:none;" d="M77 22L78 23L77 22M106 22L107 23L106 22M170 22L170 31L171 31L170 22z"/>
<path style="fill:#303030; stroke:none;" d="M330 22L331 23L330 22z"/>
<path style="fill:#9b9b9b; stroke:none;" d="M405 22L406 23L405 22M434 22L435 23L434 22M475.333 22.6667L475.667 23.3333L475.333 22.6667z"/>
<path style="fill:#303030; stroke:none;" d="M484 22L485 23L484 22z"/>
<path style="fill:#9b9b9b; stroke:none;" d="M40.3333 23.6667L40.6667 24.3333L40.3333 23.6667z"/>
<path style="fill:#303030; stroke:none;" d="M77 23L78 24L77 23M89 23L90 24L89 23M94 23L95 24L94 23z"/>
<path style="fill:#5a5a5a; stroke:none;" d="M106 23L107 24L106 23M330 23L330 26L331 26L330 23M405 23L406 24L405 23z"/>
<path style="fill:#303030; stroke:none;" d="M417 23L418 24L417 23M422 23L423 24L422 23z"/>
<path style="fill:#5a5a5a; stroke:none;" d="M434 23L435 24L434 23z"/>
<path style="fill:#303030; stroke:none;" d="M476 23L477 24L476 23z"/>
<path style="fill:#9b9b9b; stroke:none;" d="M485 23L486 24L485 23z"/>
<path style="fill:#303030; stroke:none;" d="M41 24L41 27L42 27L41 24z"/>
<path style="fill:#5a5a5a; stroke:none;" d="M89 24L90 25L89 24M94 24L95 25L94 24z"/>
<path style="fill:#303030; stroke:none;" d="M106 24L107 25L106 24M171 24L171 29L172 29L171 24z"/>
<path style="fill:#5a5a5a; stroke:none;" d="M417 24L418 25L417 24M422 24L423 25L422 24M476 24L477 25L476 24M485.333 24.6667L485.667 25.3333L485.333 24.6667z"/>
<path style="fill:#9b9b9b; stroke:none;" d="M76 25L77 26L76 25M89 25L90 26L89 25M94 25L95 26L94 25M107 25L108 26L107 25z"/>
<path style="fill:#303030; stroke:none;" d="M184.333 25.6667L184.667 26.3333L184.333 25.6667z"/>
<path style="fill:#5a5a5a; stroke:none;" d="M344 25L345 26L344 25z"/>
<path style="fill:#9b9b9b; stroke:none;" d="M404 25L405 26L404 25M417 25L418 26L417 25M422 25L423 26L422 25M435 25L436 26L435 25M476.333 25.6667L476.667 26.3333L476.333 25.6667M55 26L55 30L56 30L55 26z"/>
<path style="fill:#5a5a5a; stroke:none;" d="M76 26L77 27L76 26M107 26L108 27L107 26z"/>
<path style="fill:#9b9b9b; stroke:none;" d="M330 26L330 29L331 29L330 26M345 26L347 28L345 26z"/>
<path style="fill:#5a5a5a; stroke:none;" d="M404 26L405 27L404 26M435 26L436 27L435 26z"/>
<path style="fill:#303030; stroke:none;" d="M485 26L486 27L485 26z"/>
<path style="fill:#9b9b9b; stroke:none;" d="M486.333 26.6667L486.667 27.3333L486.333 26.6667z"/>
<path style="fill:#5a5a5a; stroke:none;" d="M41 27L41 30L42 30L41 27z"/>
<path style="fill:#303030; stroke:none;" d="M76 27L77 28L76 27M88 27L89 28L88 27M95 27L96 28L95 27M107 27L108 28L107 27z"/>
<path style="fill:#5a5a5a; stroke:none;" d="M184 27L184 31L185 31L184 27z"/>
<path style="fill:#303030; stroke:none;" d="M345 27L346 28L345 27M404 27L405 28L404 27M416 27L417 28L416 27M423 27L424 28L423 27M435 27L436 28L435 27M477 27L478 28L477 27z"/>
<path style="fill:#9b9b9b; stroke:none;" d="M75.3333 28.6667L75.6667 29.3333L75.3333 28.6667M88.3333 28.6667L88.6667 29.3333L88.3333 28.6667M95.3333 28.6667L95.6667 29.3333L95.3333 28.6667z"/>
<path style="fill:#303030; stroke:none;" d="M331 28L332 29L331 28M346 28L347 29L346 28z"/>
<path style="fill:#9b9b9b; stroke:none;" d="M416.333 28.6667L416.667 29.3333L416.333 28.6667M423.333 28.6667L423.667 29.3333L423.333 28.6667M477 28L477 31L478 31L477 28z"/>
<path style="fill:#5a5a5a; stroke:none;" d="M486 28L487 29L486 28z"/>
<path style="fill:#9b9b9b; stroke:none;" d="M108 29L109 30L108 29z"/>
<path style="fill:#5a5a5a; stroke:none;" d="M331 29L332 30L331 29z"/>
<path style="fill:#303030; stroke:none;" d="M347 29L348 30L347 29z"/>
<path style="fill:#9b9b9b; stroke:none;" d="M348 29L349 30L348 29M403 29L404 30L403 29M436 29L437 30L436 29z"/>
<path style="fill:#303030; stroke:none;" d="M486 29L487 30L486 29M41 30L41 34L42 34L41 30M75 30L76 31L75 30z"/>
<path style="fill:#5a5a5a; stroke:none;" d="M108 30L109 31L108 30z"/>
<path style="fill:#9b9b9b; stroke:none;" d="M331 30L332 31L331 30M349 30L350 31L349 30z"/>
<path style="fill:#303030; stroke:none;" d="M403 30L404 31L403 30z"/>
<path style="fill:#5a5a5a; stroke:none;" d="M436 30L437 31L436 30z"/>
<path style="fill:#303030; stroke:none;" d="M478 30L479 31L478 30z"/>
<path style="fill:#9b9b9b; stroke:none;" d="M487 30L488 31L487 30z"/>
<path style="fill:#5a5a5a; stroke:none;" d="M87 31L88 32L87 31z"/>
<path style="fill:#303030; stroke:none;" d="M96 31L97 32L96 31M108 31L109 32L108 31z"/>
<path style="fill:#5a5a5a; stroke:none;" d="M170 31L171 32L170 31z"/>
<path style="fill:#9b9b9b; stroke:none;" d="M184 31L184 34L185 34L184 31z"/>
<path style="fill:#5a5a5a; stroke:none;" d="M332 31L333 32L332 31M350 31L351 32L350 31z"/>
<path style="fill:#9b9b9b; stroke:none;" d="M351 31L352 32L351 31z"/>
<path style="fill:#5a5a5a; stroke:none;" d="M415 31L416 32L415 31z"/>
<path style="fill:#303030; stroke:none;" d="M424 31L425 32L424 31z"/>
<path style="fill:#5a5a5a; stroke:none;" d="M478 31L479 32L478 31M487 31L488 32L487 31z"/>
<path style="fill:#9b9b9b; stroke:none;" d="M74 32L75 33L74 32M87 32L88 33L87 32M96 32L97 33L96 32M109 32L110 33L109 32M169 32L170 33L169 32z"/>
<path style="fill:#303030; stroke:none;" d="M170 32L171 33L170 32z"/>
<path style="fill:#9b9b9b; stroke:none;" d="M332 32L333 33L332 32z"/>
<path style="fill:#5a5a5a; stroke:none;" d="M352 32L353 33L352 32z"/>
<path style="fill:#9b9b9b; stroke:none;" d="M402 32L403 33L402 32M415 32L416 33L415 32M424.333 32.6667L424.667 33.3333L424.333 32.6667M437 32L438 33L437 32M478.333 32.6667L478.667 33.3333L478.333 32.6667z"/>
<path style="fill:#303030; stroke:none;" d="M487.333 32.6667L487.667 33.3333L487.333 32.6667z"/>
<path style="fill:#9b9b9b; stroke:none;" d="M40.3333 33.6667L40.6667 34.3333L40.3333 33.6667z"/>
<path style="fill:#303030; stroke:none;" d="M54.3333 33.6667L54.6667 34.3333L54.3333 33.6667z"/>
<path style="fill:#5a5a5a; stroke:none;" d="M74 33L75 34L74 33M109 33L110 34L109 33M169 33L170 34L169 33z"/>
<path style="fill:#303030; stroke:none;" d="M183 33L184 34L183 33z"/>
<path style="fill:#5a5a5a; stroke:none;" d="M333 33L334 34L333 33M354 33L355 34L354 33z"/>
<path style="fill:#9b9b9b; stroke:none;" d="M355 33L356 34L355 33z"/>
<path style="fill:#5a5a5a; stroke:none;" d="M402 33L403 34L402 33M437 33L438 34L437 33z"/>
<path style="fill:#9b9b9b; stroke:none;" d="M488.333 33.6667L488.667 34.3333L488.333 33.6667z"/>
<path style="fill:#303030; stroke:none;" d="M74 34L75 35L74 34M109 34L110 35L109 34z"/>
<path style="fill:#9b9b9b; stroke:none;" d="M168 34L166 37L168 34z"/>
<path style="fill:#5a5a5a; stroke:none;" d="M183 34L184 35L183 34z"/>
<path style="fill:#9b9b9b; stroke:none;" d="M333 34L335 36L333 34z"/>
<path style="fill:#303030; stroke:none;" d="M334 34L335 35L334 34z"/>
<path style="fill:#5a5a5a; stroke:none;" d="M356 34L357 35L356 34z"/>
<path style="fill:#303030; stroke:none;" d="M402 34L403 35L402 34M437 34L438 35L437 34M479 34L480 35L479 34z"/>
<path style="fill:#5a5a5a; stroke:none;" d="M40 35L41 36L40 35M54 35L55 36L54 35z"/>
<path style="fill:#9b9b9b; stroke:none;" d="M73 35L74 36L73 35z"/>
<path style="fill:#5a5a5a; stroke:none;" d="M86 35L87 36L86 35M97 35L98 36L97 35z"/>
<path style="fill:#303030; stroke:none;" d="M168 35L169 36L168 35z"/>
<path style="fill:#9b9b9b; stroke:none;" d="M183.333 35.6667L183.667 36.3333L183.333 35.6667z"/>
<path style="fill:#5a5a5a; stroke:none;" d="M358 35L359 36L358 35z"/>
<path style="fill:#9b9b9b; stroke:none;" d="M359 35L360 36L359 35M401 35L402 36L401 35z"/>
<path style="fill:#5a5a5a; stroke:none;" d="M414 35L415 36L414 35M425 35L426 36L425 35z"/>
<path style="fill:#9b9b9b; stroke:none;" d="M479 35L479 38L480 38L479 35z"/>
<path style="fill:#5a5a5a; stroke:none;" d="M488 35L489 36L488 35z"/>
<path style="fill:#9b9b9b; stroke:none;" d="M39 36L40 37L39 36z"/>
<path style="fill:#303030; stroke:none;" d="M40 36L41 37L40 36z"/>
<path style="fill:#9b9b9b; stroke:none;" d="M54 36L55 37L54 36z"/>
<path style="fill:#5a5a5a; stroke:none;" d="M73 36L74 37L73 36z"/>
<path style="fill:#9b9b9b; stroke:none;" d="M86 36L87 37L86 36M97 36L98 37L97 36M110 36L111 37L110 36z"/>
<path style="fill:#303030; stroke:none;" d="M167 36L168 37L167 36M182 36L183 37L182 36z"/>
<path style="fill:#9b9b9b; stroke:none;" d="M335 36L336 37L335 36z"/>
<path style="fill:#5a5a5a; stroke:none;" d="M360 36L361 37L360 36z"/>
<path style="fill:#9b9b9b; stroke:none;" d="M361 36L362 37L361 36z"/>
<path style="fill:#5a5a5a; stroke:none;" d="M401 36L402 37L401 36z"/>
<path style="fill:#9b9b9b; stroke:none;" d="M414 36L415 37L414 36M425 36L426 37L425 36M438 36L439 37L438 36z"/>
<path style="fill:#303030; stroke:none;" d="M488 36L489 37L488 36z"/>
<path style="fill:#5a5a5a; stroke:none;" d="M39 37L40 38L39 37z"/>
<path style="fill:#303030; stroke:none;" d="M73 37L74 38L73 37z"/>
<path style="fill:#5a5a5a; stroke:none;" d="M110 37L111 38L110 37M165 37L166 38L165 37M182 37L183 38L182 37z"/>
<path style="fill:#9b9b9b; stroke:none;" d="M336 37L337 38L336 37z"/>
<path style="fill:#5a5a5a; stroke:none;" d="M362 37L363 38L362 37z"/>
<path style="fill:#9b9b9b; stroke:none;" d="M363 37L364 38L363 37z"/>
<path style="fill:#303030; stroke:none;" d="M401 37L402 38L401 37z"/>
<path style="fill:#5a5a5a; stroke:none;" d="M438 37L439 38L438 37z"/>
<path style="fill:#303030; stroke:none;" d="M480 37L481 38L480 37z"/>
<path style="fill:#9b9b9b; stroke:none;" d="M489 37L490 38L489 37M38 38L39 39L38 38z"/>
<path style="fill:#303030; stroke:none;" d="M39 38L40 39L39 38M53 38L54 39L53 38M85 38L86 39L85 38M98 38L99 39L98 38z"/>
<path style="fill:#9b9b9b; stroke:none;" d="M145 38L145 39L162 39L145 38z"/>
<path style="fill:#5a5a5a; stroke:none;" d="M162 38L163 39L162 38z"/>
<path style="fill:#303030; stroke:none;" d="M163 38L164 39L163 38z"/>
<path style="fill:#9b9b9b; stroke:none;" d="M182 38L183 39L182 38M337 38L338 39L337 38z"/>
<path style="fill:#5a5a5a; stroke:none;" d="M364 38L365 39L364 38z"/>
<path style="fill:#303030; stroke:none;" d="M413 38L414 39L413 38M426 38L427 39L426 38z"/>
<path style="fill:#5a5a5a; stroke:none;" d="M480 38L481 39L480 38M489.333 38.6667L489.667 39.3333L489.333 38.6667z"/>
<path style="fill:#303030; stroke:none;" d="M38 39L39 40L38 39z"/>
<path style="fill:#5a5a5a; stroke:none;" d="M53 39L54 40L53 39z"/>
<path style="fill:#9b9b9b; stroke:none;" d="M72 39L73 40L72 39z"/>
<path style="fill:#5a5a5a; stroke:none;" d="M85 39L86 40L85 39M98 39L99 40L98 39z"/>
<path style="fill:#9b9b9b; stroke:none;" d="M111 39L112 40L111 39z"/>
<path style="fill:#5a5a5a; stroke:none;" d="M181 39L182 40L181 39z"/>
<path style="fill:#9b9b9b; stroke:none;" d="M338 39L340 41L338 39z"/>
<path style="fill:#303030; stroke:none;" d="M339 39L340 40L339 39z"/>
<path style="fill:#9b9b9b; stroke:none;" d="M366 39L367 40L366 39M400 39L401 40L400 39z"/>
<path style="fill:#5a5a5a; stroke:none;" d="M413 39L414 40L413 39M426 39L427 40L426 39z"/>
<path style="fill:#9b9b9b; stroke:none;" d="M439 39L440 40L439 39M480.333 39.6667L480.667 40.3333L480.333 39.6667z"/>
<path style="fill:#5a5a5a; stroke:none;" d="M37 40L38 41L37 40z"/>
<path style="fill:#9b9b9b; stroke:none;" d="M53 40L54 41L53 40z"/>
<path style="fill:#5a5a5a; stroke:none;" d="M72 40L73 41L72 40z"/>
<path style="fill:#9b9b9b; stroke:none;" d="M85 40L86 41L85 40M98 40L99 41L98 40z"/>
<path style="fill:#5a5a5a; stroke:none;" d="M111 40L112 41L111 40z"/>
<path style="fill:#9b9b9b; stroke:none;" d="M181 40L182 41L181 40z"/>
<path style="fill:#303030; stroke:none;" d="M340 40L341 41L340 40M367 40L368 41L367 40z"/>
<path style="fill:#9b9b9b; stroke:none;" d="M368 40L369 41L368 40z"/>
<path style="fill:#5a5a5a; stroke:none;" d="M400 40L401 41L400 40z"/>
<path style="fill:#9b9b9b; stroke:none;" d="M413 40L414 41L413 40M426 40L427 41L426 40z"/>
<path style="fill:#5a5a5a; stroke:none;" d="M439 40L440 41L439 40z"/>
<path style="fill:#303030; stroke:none;" d="M489 40L490 41L489 40z"/>
<path style="fill:#9b9b9b; stroke:none;" d="M490.333 40.6667L490.667 41.3333L490.333 40.6667z"/>
<path style="fill:#303030; stroke:none;" d="M36 41L37 42L36 41M52 41L53 42L52 41M72 41L73 42L72 41M111 41L112 42L111 41z"/>
<path style="fill:#9b9b9b; stroke:none;" d="M180 41L181 42L180 41z"/>
<path style="fill:#5a5a5a; stroke:none;" d="M341 41L342 42L341 41z"/>
<path style="fill:#9b9b9b; stroke:none;" d="M369 41L370 42L369 41z"/>
<path style="fill:#303030; stroke:none;" d="M400 41L401 42L400 41M439 41L440 42L439 41M481 41L482 42L481 41z"/>
<path style="fill:#9b9b9b; stroke:none;" d="M34 42L35 43L34 42z"/>
<path style="fill:#303030; stroke:none;" d="M35 42L36 43L35 42z"/>
<path style="fill:#9b9b9b; stroke:none;" d="M52 42L53 43L52 42M71 42L72 43L71 42z"/>
<path style="fill:#303030; stroke:none;" d="M84 42L85 43L84 42M99 42L100 43L99 42z"/>
<path style="fill:#9b9b9b; stroke:none;" d="M112.333 42.6667L112.667 43.3333L112.333 42.6667z"/>
<path style="fill:#5a5a5a; stroke:none;" d="M179 42L180 43L179 42z"/>
<path style="fill:#9b9b9b; stroke:none;" d="M342 42L343 43L342 42z"/>
<path style="fill:#303030; stroke:none;" d="M343 42L344 43L343 42z"/>
<path style="fill:#5a5a5a; stroke:none;" d="M370 42L371 43L370 42z"/>
<path style="fill:#9b9b9b; stroke:none;" d="M399 42L400 43L399 42z"/>
<path style="fill:#303030; stroke:none;" d="M412 42L413 43L412 42M427 42L428 43L427 42z"/>
<path style="fill:#9b9b9b; stroke:none;" d="M440.333 42.6667L440.667 43.3333L440.333 42.6667M481 42L481 45L482 45L481 42z"/>
<path style="fill:#5a5a5a; stroke:none;" d="M490 42L491 43L490 42z"/>
<path style="fill:#9b9b9b; stroke:none;" d="M32 43L33 44L32 43z"/>
<path style="fill:#303030; stroke:none;" d="M33 43L34 44L33 43M51 43L52 44L51 43z"/>
<path style="fill:#5a5a5a; stroke:none;" d="M71 43L72 44L71 43M84 43L85 44L84 43M99 43L100 44L99 43M178 43L179 44L178 43z"/>
<path style="fill:#9b9b9b; stroke:none;" d="M344 43L345 44L344 43z"/>
<path style="fill:#303030; stroke:none;" d="M345 43L346 44L345 43M371 43L375 47L371 43z"/>
<path style="fill:#9b9b9b; stroke:none;" d="M372 43L373 44L372 43z"/>
<path style="fill:#5a5a5a; stroke:none;" d="M399 43L400 44L399 43M412 43L413 44L412 43M427 43L428 44L427 43z"/>
<path style="fill:#303030; stroke:none;" d="M490 43L491 44L490 43M14 44L15 45L14 44z"/>
<path style="fill:#9b9b9b; stroke:none;" d="M15 44L15 45L29 45L15 44z"/>
<path style="fill:#5a5a5a; stroke:none;" d="M29 44L30 45L29 44z"/>
<path style="fill:#9b9b9b; stroke:none;" d="M51 44L52 45L51 44z"/>
<path style="fill:#303030; stroke:none;" d="M71 44L72 45L71 44z"/>
<path style="fill:#9b9b9b; stroke:none;" d="M84 44L85 45L84 44M99 44L100 45L99 44z"/>
<path style="fill:#303030; stroke:none;" d="M112 44L113 45L112 44M177 44L178 45L177 44z"/>
<path style="fill:#9b9b9b; stroke:none;" d="M178 44L179 45L178 44M346 44L347 45L346 44M373 44L374 45L373 44z"/>
<path style="fill:#303030; stroke:none;" d="M399 44L400 45L399 44z"/>
<path style="fill:#9b9b9b; stroke:none;" d="M412 44L413 45L412 44M427 44L428 45L427 44z"/>
<path style="fill:#5a5a5a; stroke:none;" d="M440 44L441 45L440 44z"/>
<path style="fill:#303030; stroke:none;" d="M482 44L483 45L482 44z"/>
<path style="fill:#9b9b9b; stroke:none;" d="M491 44L492 45L491 44z"/>
<path style="fill:#303030; stroke:none;" d="M50 45L51 46L50 45z"/>
<path style="fill:#5a5a5a; stroke:none;" d="M176 45L177 46L176 45z"/>
<path style="fill:#9b9b9b; stroke:none;" d="M348 45L349 46L348 45z"/>
<path style="fill:#303030; stroke:none;" d="M349 45L350 46L349 45z"/>
<path style="fill:#9b9b9b; stroke:none;" d="M374 45L375 46L374 45z"/>
<path style="fill:#5a5a5a; stroke:none;" d="M482 45L483 46L482 45M491.333 45.6667L491.667 46.3333L491.333 45.6667z"/>
<path style="fill:#9b9b9b; stroke:none;" d="M70 46L71 47L70 46z"/>
<path style="fill:#303030; stroke:none;" d="M83 46L84 47L83 46M100 46L101 47L100 46z"/>
<path style="fill:#9b9b9b; stroke:none;" d="M113 46L114 47L113 46M175 46L176 47L175 46M350 46L351 47L350 46z"/>
<path style="fill:#303030; stroke:none;" d="M351 46L352 47L351 46z"/>
<path style="fill:#9b9b9b; stroke:none;" d="M375 46L376 47L375 46M398 46L399 47L398 46z"/>
<path style="fill:#303030; stroke:none;" d="M411 46L412 47L411 46M428 46L429 47L428 46z"/>
<path style="fill:#9b9b9b; stroke:none;" d="M441 46L442 47L441 46M482.333 46.6667L482.667 47.3333L482.333 46.6667M49 47L50 48L49 47z"/>
<path style="fill:#5a5a5a; stroke:none;" d="M70 47L71 48L70 47z"/>
<path style="fill:#9b9b9b; stroke:none;" d="M83.3333 47.6667L83.6667 48.3333L83.3333 47.6667z"/>
<path style="fill:#5a5a5a; stroke:none;" d="M100 47L101 48L100 47M113 47L114 48L113 47M173 47L174 48L173 47z"/>
<path style="fill:#9b9b9b; stroke:none;" d="M174 47L175 48L174 47M352 47L353 48L352 47z"/>
<path style="fill:#303030; stroke:none;" d="M353 47L354 48L353 47z"/>
<path style="fill:#5a5a5a; stroke:none;" d="M375 47L376 48L375 47M398 47L399 48L398 47z"/>
<path style="fill:#9b9b9b; stroke:none;" d="M411.333 47.6667L411.667 48.3333L411.333 47.6667M428.333 47.6667L428.667 48.3333L428.333 47.6667z"/>
<path style="fill:#5a5a5a; stroke:none;" d="M441 47L442 48L441 47z"/>
<path style="fill:#303030; stroke:none;" d="M491 47L492 48L491 47z"/>
<path style="fill:#9b9b9b; stroke:none;" d="M492.333 47.6667L492.667 48.3333L492.333 47.6667M48 48L49 49L48 48M100 48L101 49L100 48z"/>
<path style="fill:#303030; stroke:none;" d="M113 48L114 49L113 48z"/>
<path style="fill:#5a5a5a; stroke:none;" d="M172 48L173 49L172 48z"/>
<path style="fill:#9b9b9b; stroke:none;" d="M354 48L355 49L354 48z"/>
<path style="fill:#303030; stroke:none;" d="M355 48L356 49L355 48z"/>
<path style="fill:#9b9b9b; stroke:none;" d="M376 48L377 49L376 48z"/>
<path style="fill:#303030; stroke:none;" d="M398 48L399 49L398 48M441 48L442 49L441 48M483 48L484 49L483 48z"/>
<path style="fill:#9b9b9b; stroke:none;" d="M47 49L48 50L47 49M69 49L70 50L69 49z"/>
<path style="fill:#303030; stroke:none;" d="M82 49L83 50L82 49z"/>
<path style="fill:#9b9b9b; stroke:none;" d="M114 49L115 50L114 49M173 49L174 50L173 49M356 49L357 50L356 49z"/>
<path style="fill:#303030; stroke:none;" d="M357 49L358 50L357 49z"/>
<path style="fill:#9b9b9b; stroke:none;" d="M377 49L378 50L377 49M397 49L398 50L397 49z"/>
<path style="fill:#303030; stroke:none;" d="M410 49L411 50L410 49z"/>
<path style="fill:#9b9b9b; stroke:none;" d="M442 49L443 50L442 49z"/>
<path style="fill:#5a5a5a; stroke:none;" d="M483 49L484 50L483 49M492 49L493 50L492 49z"/>
<path style="fill:#303030; stroke:none;" d="M45 50L46 51L45 50z"/>
<path style="fill:#9b9b9b; stroke:none;" d="M46 50L47 51L46 50z"/>
<path style="fill:#5a5a5a; stroke:none;" d="M69 50L70 51L69 50M82 50L83 51L82 50z"/>
<path style="fill:#303030; stroke:none;" d="M101 50L83 51L83 52L101 50z"/>
<path style="fill:#5a5a5a; stroke:none;" d="M114 50L115 51L114 50z"/>
<path style="fill:#303030; stroke:none;" d="M145 50L146 51L145 50M148 50L149 51L148 50M157 50L158 51L157 50z"/>
<path style="fill:#5a5a5a; stroke:none;" d="M173 50L174 51L173 50z"/>
<path style="fill:#9b9b9b; stroke:none;" d="M358 50L359 51L358 50z"/>
<path style="fill:#303030; stroke:none;" d="M359 50L360 51L359 50z"/>
<path style="fill:#5a5a5a; stroke:none;" d="M377 50L378 51L377 50M397 50L398 51L397 50M410 50L411 51L410 50z"/>
<path style="fill:#303030; stroke:none;" d="M429 50L411 51L411 52L429 50z"/>
<path style="fill:#5a5a5a; stroke:none;" d="M442 50L443 51L442 50z"/>
<path style="fill:#9b9b9b; stroke:none;" d="M483.333 50.6667L483.667 51.3333L483.333 50.6667z"/>
<path style="fill:#303030; stroke:none;" d="M492 50L493 51L492 50M44 51L45 52L44 51M69 51L70 52L69 51M114 51L115 52L114 51M144 51L144 79L132 79L132 80C135.145 80 140.777 81.0471 143.397 78.9722C147.448 75.7632 145.848 55.405 144 51z"/>
<path style="fill:#9b9b9b; stroke:none;" d="M159 51L160 52L159 51z"/>
<path style="fill:#303030; stroke:none;" d="M160 51L161 52L160 51z"/>
<path style="fill:#9b9b9b; stroke:none;" d="M174 51L175 52L174 51M360 51L361 52L360 51z"/>
<path style="fill:#303030; stroke:none;" d="M361 51L362 52L361 51z"/>
<path style="fill:#9b9b9b; stroke:none;" d="M378 51L379 52L378 51z"/>
<path style="fill:#303030; stroke:none;" d="M397 51L398 52L397 51M442 51L443 52L442 51M484 51L485 52L484 51z"/>
<path style="fill:#9b9b9b; stroke:none;" d="M493 51L494 52L493 51z"/>
<path style="fill:#5a5a5a; stroke:none;" d="M43 52L44 53L43 52M160 52L161 53L160 52M174 52L175 53L174 52M362 52L363 53L362 52M378 52L379 53L378 52M484 52L485 53L484 52M493.333 52.6667L493.667 53.3333L493.333 52.6667M41 53L42 54L41 53z"/>
<path style="fill:#9b9b9b; stroke:none;" d="M68 53L69 54L68 53M115 53L116 54L115 53M160 53L161 54L160 53M175 53L176 54L175 53z"/>
<path style="fill:#5a5a5a; stroke:none;" d="M363 53L364 54L363 53z"/>
<path style="fill:#303030; stroke:none;" d="M378 53L379 54L378 53z"/>
<path style="fill:#9b9b9b; stroke:none;" d="M396 53L397 54L396 53M443 53L444 54L443 53M484.333 53.6667L484.667 54.3333L484.333 53.6667z"/>
<path style="fill:#303030; stroke:none;" d="M38 54L39 55L38 54z"/>
<path style="fill:#9b9b9b; stroke:none;" d="M39 54L40 55L39 54z"/>
<path style="fill:#5a5a5a; stroke:none;" d="M68 54L69 55L68 54M115 54L116 55L115 54M161 54L162 55L161 54M175 54L176 55L175 54M364 54L365 55L364 54z"/>
<path style="fill:#9b9b9b; stroke:none;" d="M379.333 54.6667L379.667 55.3333L379.333 54.6667z"/>
<path style="fill:#5a5a5a; stroke:none;" d="M396 54L397 55L396 54M443 54L444 55L443 54z"/>
<path style="fill:#303030; stroke:none;" d="M493 54L494 55L493 54z"/>
<path style="fill:#9b9b9b; stroke:none;" d="M494.333 54.6667L494.667 55.3333L494.333 54.6667M497.333 54.6667L497.667 55.3333L497.333 54.6667z"/>
<path style="fill:#303030; stroke:none;" d="M34 55L35 56L34 55z"/>
<path style="fill:#5a5a5a; stroke:none;" d="M35 55L36 56L35 55z"/>
<path style="fill:#9b9b9b; stroke:none;" d="M36.6667 55.3333L37.3333 55.6667L36.6667 55.3333z"/>
<path style="fill:#303030; stroke:none;" d="M115 55L116 56L115 55z"/>
<path style="fill:#9b9b9b; stroke:none;" d="M161 55L162 56L161 55M176 55L177 56L176 55M364 55L365 56L364 55z"/>
<path style="fill:#303030; stroke:none;" d="M365 55L366 56L365 55M443 55L444 56L443 55M485 55L486 56L485 55M15 56L15 57L28 57L15 56z"/>
<path style="fill:#5a5a5a; stroke:none;" d="M28 56L28 57L32 57L28 56z"/>
<path style="fill:#9b9b9b; stroke:none;" d="M32 56L33 57L32 56M67 56L68 57L67 56M116 56L117 57L116 56z"/>
<path style="fill:#303030; stroke:none;" d="M162 56L163 57L162 56z"/>
<path style="fill:#5a5a5a; stroke:none;" d="M176 56L177 57L176 56M365 56L366 57L365 56M379.333 56.6667L379.667 57.3333L379.333 56.6667z"/>
<path style="fill:#9b9b9b; stroke:none;" d="M395 56L396 57L395 56M444 56L445 57L444 56z"/>
<path style="fill:#5a5a5a; stroke:none;" d="M485 56L486 57L485 56M494 56L495 57L494 56M14 57L14 80L15 80L14 57M67 57L68 58L67 57M116 57L117 58L116 57z"/>
<path style="fill:#9b9b9b; stroke:none;" d="M162 57L163 61L164 61L162 57z"/>
<path style="fill:#303030; stroke:none;" d="M176 57L177 58L176 57z"/>
<path style="fill:#9b9b9b; stroke:none;" d="M177 57L178 58L177 57M365 57L365 62L366 62L365 57z"/>
<path style="fill:#5a5a5a; stroke:none;" d="M395 57L396 58L395 57M444 57L445 58L444 57z"/>
<path style="fill:#9b9b9b; stroke:none;" d="M485.333 57.6667L485.667 58.3333L485.333 57.6667z"/>
<path style="fill:#303030; stroke:none;" d="M494 57L495 58L494 57z"/>
<path style="fill:#9b9b9b; stroke:none;" d="M497.333 57.6667L497.667 58.3333L497.333 57.6667z"/>
<path style="fill:#303030; stroke:none;" d="M67 58L68 59L67 58M116.333 58.6667L116.667 59.3333L116.333 58.6667M163 58L164 59L163 58z"/>
<path style="fill:#5a5a5a; stroke:none;" d="M177 58L178 59L177 58z"/>
<path style="fill:#303030; stroke:none;" d="M379 58L379 61L380 61L379 58M395 58L396 59L395 58M444 58L445 59L444 58M486 58L487 59L486 58z"/>
<path style="fill:#9b9b9b; stroke:none;" d="M495 58L496 59L495 58z"/>
<path style="fill:#303030; stroke:none;" d="M177 59L178 60L177 59z"/>
<path style="fill:#9b9b9b; stroke:none;" d="M178 59L179 60L178 59z"/>
<path style="fill:#303030; stroke:none;" d="M366.333 59.6667L366.667 60.3333L366.333 59.6667z"/>
<path style="fill:#5a5a5a; stroke:none;" d="M486 59L487 60L486 59M495.333 59.6667L495.667 60.3333L495.333 59.6667z"/>
<path style="fill:#9b9b9b; stroke:none;" d="M66 60L67 61L66 60M117 60L118 61L117 60z"/>
<path style="fill:#5a5a5a; stroke:none;" d="M178 60L179 61L178 60z"/>
<path style="fill:#9b9b9b; stroke:none;" d="M394 60L395 61L394 60M445 60L446 61L445 60M486.333 60.6667L486.667 61.3333L486.333 60.6667z"/>
<path style="fill:#5a5a5a; stroke:none;" d="M66 61L67 62L66 61M117 61L118 62L117 61M164 61L165 62L164 61z"/>
<path style="fill:#303030; stroke:none;" d="M178 61L179 62L178 61z"/>
<path style="fill:#9b9b9b; stroke:none;" d="M179.333 61.6667L179.667 62.3333L179.333 61.6667z"/>
<path style="fill:#5a5a5a; stroke:none;" d="M379 61L379 64L380 64L379 61M394 61L395 62L394 61M445 61L446 62L445 61z"/>
<path style="fill:#303030; stroke:none;" d="M495 61L497 63L495 61z"/>
<path style="fill:#9b9b9b; stroke:none;" d="M496.667 61.3333L497.333 61.6667L496.667 61.3333z"/>
<path style="fill:#303030; stroke:none;" d="M117 62L118 63L117 62z"/>
<path style="fill:#9b9b9b; stroke:none;" d="M164 62L165 63L164 62z"/>
<path style="fill:#5a5a5a; stroke:none;" d="M365 62L366 63L365 62z"/>
<path style="fill:#303030; stroke:none;" d="M487 62L488 63L487 62z"/>
<path style="fill:#5a5a5a; stroke:none;" d="M497 62L498 63L497 62z"/>
<path style="fill:#9b9b9b; stroke:none;" d="M65 63L66 64L65 63M79 63L79 64L104 64L79 63z"/>
<path style="fill:#5a5a5a; stroke:none;" d="M104 63L105 64L104 63z"/>
<path style="fill:#9b9b9b; stroke:none;" d="M118 63L119 64L118 63z"/>
<path style="fill:#5a5a5a; stroke:none;" d="M165 63L166 64L165 63z"/>
<path style="fill:#303030; stroke:none;" d="M179 63L180 64L179 63z"/>
<path style="fill:#9b9b9b; stroke:none;" d="M330 63L331 64L330 63z"/>
<path style="fill:#303030; stroke:none;" d="M365 63L366 64L365 63z"/>
<path style="fill:#9b9b9b; stroke:none;" d="M393 63L394 64L393 63M407 63L407 64L433 64L407 63M446 63L447 64L446 63z"/>
<path style="fill:#5a5a5a; stroke:none;" d="M487 63L488 64L487 63M65 64L66 65L65 64M118 64L119 65L118 64z"/>
<path style="fill:#9b9b9b; stroke:none;" d="M165 64L166 65L165 64M180 64L181 67L182 67L180 64M329.333 64.6667L329.667 65.3333L329.333 64.6667z"/>
<path style="fill:#303030; stroke:none;" d="M331 64L332 65L331 64z"/>
<path style="fill:#9b9b9b; stroke:none;" d="M332 64L333 65L332 64z"/>
<path style="fill:#5a5a5a; stroke:none;" d="M364 64L365 65L364 64z"/>
<path style="fill:#9b9b9b; stroke:none;" d="M379.333 64.6667L379.667 65.3333L379.333 64.6667z"/>
<path style="fill:#5a5a5a; stroke:none;" d="M393 64L394 65L393 64M446 64L447 65L446 64z"/>
<path style="fill:#9b9b9b; stroke:none;" d="M487.333 64.6667L487.667 65.3333L487.333 64.6667z"/>
<path style="fill:#303030; stroke:none;" d="M65 65L66 66L65 65M78 65L79 66L78 65M105 65L106 66L105 65M118.333 65.6667L118.667 66.3333L118.333 65.6667M166 65L167 66L166 65M180 65L181 66L180 65z"/>
<path style="fill:#5a5a5a; stroke:none;" d="M334 65L335 66L334 65z"/>
<path style="fill:#9b9b9b; stroke:none;" d="M335 65L336 66L335 65z"/>
<path style="fill:#5a5a5a; stroke:none;" d="M363 65L364 66L363 65z"/>
<path style="fill:#303030; stroke:none;" d="M393 65L394 66L393 65M406 65L407 66L406 65M433 65L434 66L433 65M446 65L447 66L446 65M488 65L489 66L488 65z"/>
<path style="fill:#9b9b9b; stroke:none;" d="M64.3333 66.6667L64.6667 67.3333L64.3333 66.6667M78 66L79 67L78 66M105.333 66.6667L105.667 67.3333L105.333 66.6667z"/>
<path style="fill:#5a5a5a; stroke:none;" d="M166 66L167 67L166 66M329.333 66.6667L329.667 67.3333L329.333 66.6667z"/>
<path style="fill:#303030; stroke:none;" d="M337 66L338 67L337 66z"/>
<path style="fill:#9b9b9b; stroke:none;" d="M338.667 66.3333L339.333 66.6667L338.667 66.3333M361 66L362 67L361 66z"/>
<path style="fill:#5a5a5a; stroke:none;" d="M362 66L363 67L362 66z"/>
<path style="fill:#303030; stroke:none;" d="M378 66L379 67L378 66z"/>
<path style="fill:#9b9b9b; stroke:none;" d="M392.333 66.6667L392.667 67.3333L392.333 66.6667M406 66L407 67L406 66M433.333 66.6667L433.667 67.3333L433.333 66.6667z"/>
<path style="fill:#5a5a5a; stroke:none;" d="M488 66L489 67L488 66z"/>
<path style="fill:#9b9b9b; stroke:none;" d="M119 67L120 68L119 67M166 67L167 68L166 67z"/>
<path style="fill:#303030; stroke:none;" d="M167 67L168 68L167 67M181 67L182 68L181 67z"/>
<path style="fill:#9b9b9b; stroke:none;" d="M281 67L282 68L281 67z"/>
<path style="fill:#5a5a5a; stroke:none;" d="M295 67L296 68L295 67z"/>
<path style="fill:#303030; stroke:none;" d="M340 67L341 68L340 67z"/>
<path style="fill:#5a5a5a; stroke:none;" d="M341 67L342 68L341 67z"/>
<path style="fill:#9b9b9b; stroke:none;" d="M342.667 67.3333L343.333 67.6667L342.667 67.3333M359 67L360 68L359 67z"/>
<path style="fill:#5a5a5a; stroke:none;" d="M360 67L361 68L360 67z"/>
<path style="fill:#9b9b9b; stroke:none;" d="M378.333 67.6667L378.667 68.3333L378.333 67.6667M447 67L448 68L447 67M488.333 67.6667L488.667 68.3333L488.333 67.6667z"/>
<path style="fill:#303030; stroke:none;" d="M64 68L65 69L64 68z"/>
<path style="fill:#5a5a5a; stroke:none;" d="M119 68L120 69L119 68M167 68L168 69L167 68z"/>
<path style="fill:#9b9b9b; stroke:none;" d="M182 68L183 69L182 68M264 68L265 69L264 68z"/>
<path style="fill:#303030; stroke:none;" d="M296 68L296 69L312 69L312 79L265 79C274.074 82.8076 289.153 80 299 80C302.398 80 307.553 80.9365 310.682 79.3966C313.987 77.7702 313.987 70.2298 310.682 68.6034C306.867 66.7263 300.183 68 296 68z"/>
<path style="fill:#5a5a5a; stroke:none;" d="M312 68L313 69L312 68z"/>
<path style="fill:#303030; stroke:none;" d="M329.333 68.6667L329.667 69.3333L329.333 68.6667M345.667 68.3333L346.333 68.6667L345.667 68.3333z"/>
<path style="fill:#5a5a5a; stroke:none;" d="M347.667 68.3333L348.333 68.6667L347.667 68.3333z"/>
<path style="fill:#9b9b9b; stroke:none;" d="M349 68L349 69L356 69L349 68z"/>
<path style="fill:#5a5a5a; stroke:none;" d="M356 68L357 69L356 68z"/>
<path style="fill:#303030; stroke:none;" d="M357.667 68.3333L358.333 68.6667L357.667 68.3333M392.333 68.6667L392.667 69.3333L392.333 68.6667M405 68L406 69L405 68z"/>
<path style="fill:#5a5a5a; stroke:none;" d="M447 68L448 69L447 68M77 69L78 70L77 69M106 69L107 70L106 69z"/>
<path style="fill:#303030; stroke:none;" d="M119 69L120 70L119 69z"/>
<path style="fill:#9b9b9b; stroke:none;" d="M167 69L168 70L167 69z"/>
<path style="fill:#5a5a5a; stroke:none;" d="M182 69L183 70L182 69M264 69L264 79L265 79L264 69z"/>
<path style="fill:#9b9b9b; stroke:none;" d="M328 69L328 74L329 74L328 69z"/>
<path style="fill:#5a5a5a; stroke:none;" d="M377 69L378 70L377 69M405 69L406 70L405 69z"/>
<path style="fill:#303030; stroke:none;" d="M434 69L435 70L434 69M447 69L448 70L447 69M489 69L490 70L489 69z"/>
<path style="fill:#9b9b9b; stroke:none;" d="M63 70L64 71L63 70M77 70L78 71L77 70M106.333 70.6667L106.667 71.3333L106.333 70.6667M120 70L121 71L120 70z"/>
<path style="fill:#5a5a5a; stroke:none;" d="M168 70L169 71L168 70z"/>
<path style="fill:#9b9b9b; stroke:none;" d="M183 70L184 71L183 70M313 70L313 79L314 79L313 70M377 70L378 71L377 70M391 70L392 71L391 70M405.333 70.6667L405.667 71.3333L405.333 70.6667M434.333 70.6667L434.667 71.3333L434.333 70.6667M448 70L449 71L448 70z"/>
<path style="fill:#5a5a5a; stroke:none;" d="M489 70L490 71L489 70M63 71L64 72L63 71M120 71L121 72L120 71z"/>
<path style="fill:#9b9b9b; stroke:none;" d="M168 71L169 72L168 71z"/>
<path style="fill:#303030; stroke:none;" d="M183 71L184 72L183 71z"/>
<path style="fill:#9b9b9b; stroke:none;" d="M376 71L377 72L376 71z"/>
<path style="fill:#5a5a5a; stroke:none;" d="M391 71L392 72L391 71M448 71L449 72L448 71z"/>
<path style="fill:#9b9b9b; stroke:none;" d="M489.333 71.6667L489.667 72.3333L489.333 71.6667z"/>
<path style="fill:#303030; stroke:none;" d="M63 72L64 73L63 72M76 72L77 73L76 72M120.333 72.6667L120.667 73.3333L120.333 72.6667M169 72L170 73L169 72z"/>
<path style="fill:#9b9b9b; stroke:none;" d="M184 72L185 73L184 72z"/>
<path style="fill:#5a5a5a; stroke:none;" d="M375 72L376 73L375 72z"/>
<path style="fill:#303030; stroke:none;" d="M391 72L392 73L391 72M404 72L405 73L404 72M448 72L449 73L448 72M490 72L491 73L490 72z"/>
<path style="fill:#9b9b9b; stroke:none;" d="M62 73L63 74L62 73z"/>
<path style="fill:#5a5a5a; stroke:none;" d="M76 73L77 74L76 73M107 73L108 74L107 73z"/>
<path style="fill:#9b9b9b; stroke:none;" d="M169.333 73.6667L169.667 74.3333L169.333 73.6667z"/>
<path style="fill:#5a5a5a; stroke:none;" d="M184 73L185 74L184 73z"/>
<path style="fill:#303030; stroke:none;" d="M374 73L375 74L374 73z"/>
<path style="fill:#9b9b9b; stroke:none;" d="M390 73L391 74L390 73z"/>
<path style="fill:#5a5a5a; stroke:none;" d="M404 73L405 74L404 73M435 73L436 74L435 73M490 73L491 74L490 73M62 74L63 75L62 74z"/>
<path style="fill:#9b9b9b; stroke:none;" d="M76 74L77 75L76 74M107 74L108 75L107 74M121 74L122 75L121 74z"/>
<path style="fill:#303030; stroke:none;" d="M170 74L171 75L170 74z"/>
<path style="fill:#9b9b9b; stroke:none;" d="M185 74L186 75L185 74z"/>
<path style="fill:#5a5a5a; stroke:none;" d="M328 74L328 77L329 77L328 74M373 74L374 75L373 74M390 74L391 75L390 74z"/>
<path style="fill:#9b9b9b; stroke:none;" d="M404 74L405 75L404 74M435 74L436 75L435 74M449 74L450 75L449 74M490.333 74.6667L490.667 75.3333L490.333 74.6667z"/>
<path style="fill:#303030; stroke:none;" d="M62 75L63 76L62 75z"/>
<path style="fill:#5a5a5a; stroke:none;" d="M121 75L122 76L121 75M170 75L171 76L170 75M185 75L186 76L185 75z"/>
<path style="fill:#303030; stroke:none;" d="M371 75L370 77L371 75z"/>
<path style="fill:#5a5a5a; stroke:none;" d="M372 75L373 76L372 75z"/>
<path style="fill:#303030; stroke:none;" d="M390.333 75.6667L390.667 76.3333L390.333 75.6667z"/>
<path style="fill:#5a5a5a; stroke:none;" d="M449 75L450 76L449 75z"/>
<path style="fill:#303030; stroke:none;" d="M75 76L76 77L75 76M108 76L109 77L108 76M121 76L122 77L121 76z"/>
<path style="fill:#9b9b9b; stroke:none;" d="M170 76L171 77L170 76M186 76L187 77L186 76M371 76L372 77L371 76z"/>
<path style="fill:#303030; stroke:none;" d="M403 76L404 77L403 76M436 76L437 77L436 76M449 76L450 77L449 76M491 76L492 77L491 76z"/>
<path style="fill:#9b9b9b; stroke:none;" d="M61 77L62 78L61 77M75.3333 77.6667L75.6667 78.3333L75.3333 77.6667z"/>
<path style="fill:#5a5a5a; stroke:none;" d="M108 77L109 78L108 77z"/>
<path style="fill:#9b9b9b; stroke:none;" d="M122 77L123 78L122 77z"/>
<path style="fill:#5a5a5a; stroke:none;" d="M171 77L172 78L171 77M186 77L187 78L186 77z"/>
<path style="fill:#9b9b9b; stroke:none;" d="M329 77L330 78L329 77z"/>
<path style="fill:#5a5a5a; stroke:none;" d="M330 77L331 78L330 77z"/>
<path style="fill:#303030; stroke:none;" d="M331 77L332 78L331 77M368 77L369 78L368 77z"/>
<path style="fill:#9b9b9b; stroke:none;" d="M369 77L370 78L369 77M389 77L390 78L389 77z"/>
<path style="fill:#5a5a5a; stroke:none;" d="M403 77L404 78L403 77M436 77L437 78L436 77z"/>
<path style="fill:#9b9b9b; stroke:none;" d="M450 77L451 78L450 77z"/>
<path style="fill:#5a5a5a; stroke:none;" d="M491 77L492 78L491 77M61.3333 78.6667L61.6667 79.3333L61.3333 78.6667z"/>
<path style="fill:#9b9b9b; stroke:none;" d="M108 78L109 79L108 78z"/>
<path style="fill:#5a5a5a; stroke:none;" d="M122.333 78.6667L122.667 79.3333L122.333 78.6667z"/>
<path style="fill:#9b9b9b; stroke:none;" d="M171.333 78.6667L171.667 79.3333L171.333 78.6667M187.333 78.6667L187.667 79.3333L187.333 78.6667M332 78L333 79L332 78z"/>
<path style="fill:#5a5a5a; stroke:none;" d="M333 78L334 79L333 78z"/>
<path style="fill:#303030; stroke:none;" d="M334.667 78.3333L335.333 78.6667L334.667 78.3333M365 78L366 79L365 78z"/>
<path style="fill:#5a5a5a; stroke:none;" d="M366 78L367 79L366 78z"/>
<path style="fill:#9b9b9b; stroke:none;" d="M367 78L368 79L367 78z"/>
<path style="fill:#5a5a5a; stroke:none;" d="M389.333 78.6667L389.667 79.3333L389.333 78.6667z"/>
<path style="fill:#9b9b9b; stroke:none;" d="M403 78L404 79L403 78M436 78L437 79L436 78z"/>
<path style="fill:#5a5a5a; stroke:none;" d="M450.333 78.6667L450.667 79.3333L450.333 78.6667z"/>
<path style="fill:#9b9b9b; stroke:none;" d="M491.333 78.6667L491.667 79.3333L491.333 78.6667z"/>
<path style="fill:#303030; stroke:none;" d="M2 79L2 80L14 80L2 79M62 79L62 80L75 80L62 79M109 79L109 80L122 80L109 79z"/>
<path style="fill:#5a5a5a; stroke:none;" d="M144 79L145 80L144 79M172 79L173 80L172 79z"/>
<path style="fill:#303030; stroke:none;" d="M173 79L173 80L187 80L173 79M217 79L217 80L229 80L217 79z"/>
<path style="fill:#9b9b9b; stroke:none;" d="M264 79L265 80L264 79z"/>
<path style="fill:#5a5a5a; stroke:none;" d="M312 79L313 80L312 79z"/>
<path style="fill:#9b9b9b; stroke:none;" d="M335.667 79.3333L336.333 79.6667L335.667 79.3333z"/>
<path style="fill:#5a5a5a; stroke:none;" d="M337.667 79.3333L338.333 79.6667L337.667 79.3333z"/>
<path style="fill:#303030; stroke:none;" d="M339 79L339 80L342 80L339 79M360 79L360 80L363 80L360 79z"/>
<path style="fill:#5a5a5a; stroke:none;" d="M363.667 79.3333L364.333 79.6667L363.667 79.3333z"/>
<path style="fill:#9b9b9b; stroke:none;" d="M365 79L366 80L365 79z"/>
<path style="fill:#303030; stroke:none;" d="M390 79L390 80L403 80L390 79M437 79L437 80L450 80L437 79z"/>
<path style="fill:#9b9b9b; stroke:none;" d="M460 79L461 80L460 79z"/>
<path style="fill:#5a5a5a; stroke:none;" d="M472 79L473 80L472 79M492 79L493 80L492 79z"/>
<path style="fill:#303030; stroke:none;" d="M493 79L493 80L510 80L493 79z"/>
<path style="fill:#9b9b9b; stroke:none;" d="M340 80L340 81L343 81L340 80z"/>
<path style="fill:#5a5a5a; stroke:none;" d="M343 80L343 81L347 81L343 80z"/>
<path style="fill:#303030; stroke:none;" d="M347 80L347 81L355 81L347 80z"/>
<path style="fill:#5a5a5a; stroke:none;" d="M355 80L355 81L360 81L355 80z"/>
<path style="fill:#9b9b9b; stroke:none;" d="M360 80L361 81L360 80z"/>
</svg>
