<?xml version="1.0" standalone="no"?>
<!DOCTYPE svg PUBLIC "-//W3C//DTD SVG 1.0//EN" "http://www.w3.org/TR/2001/REC-SVG-20010904/DTD/svg10.dtd">
<svg xmlns="http://www.w3.org/2000/svg" xmlns:xlink="http://www.w3.org/1999/xlink" id="body_1" width="326" height="338">

<g transform="matrix(0.6666667 0 0 0.6666667 0.6666667 -0)">
	<g transform="matrix(0.1 0 -0 -0.1 0 507)">
        <path d="M2340 5019C 2233 4998 2116 4916 2054 4819C 1989 4716 1972 4570 2010 4447C 2032 4375 2099 4276 2150 4240C 2186 4215 2182 4208 2125 4190C 1964 4139 1777 3994 1674 3838C 1588 3709 1523 3525 1536 3451C 1550 3375 1607 3310 1677 3291C 1702 3284 1962 3280 2430 3280C 2898 3280 3158 3284 3183 3291C 3251 3309 3310 3375 3323 3446C 3331 3487 3298 3622 3261 3705C 3161 3925 2946 4123 2735 4190C 2678 4208 2674 4215 2710 4240C 2761 4276 2828 4375 2850 4447C 2951 4773 2674 5084 2340 5019zM2554 4900C 2627 4872 2701 4801 2737 4725C 2760 4675 2765 4652 2765 4585C 2765 4492 2738 4421 2677 4353C 2550 4213 2310 4213 2183 4353C 2020 4534 2086 4811 2313 4902C 2373 4926 2485 4925 2554 4900zM2572 4126C 2867 4068 3095 3873 3191 3597C 3228 3492 3228 3451 3194 3416L3194 3416L3167 3390L2430 3390L1693 3390L1666 3416C 1632 3451 1632 3492 1669 3597C 1750 3831 1935 4015 2171 4096C 2305 4141 2441 4151 2572 4126z" stroke="none" fill="#000000" fill-rule="nonzero" />
        <path d="M1582 4430C 821 4121 294 3456 176 2655C 153 2499 145 2357 159 2332C 173 2306 221 2302 239 2324C 246 2332 255 2393 260 2459C 284 2768 353 3017 493 3295C 655 3619 902 3900 1210 4113C 1317 4186 1499 4284 1605 4326C 1688 4358 1710 4375 1710 4406C 1710 4425 1677 4461 1660 4460C 1657 4460 1622 4446 1582 4430z" stroke="none" fill="#000000" fill-rule="nonzero" />
        <path d="M3172 4444C 3146 4426 3143 4389 3168 4369C 3177 4361 3212 4343 3245 4331C 3278 4318 3354 4282 3414 4252C 3820 4046 4163 3702 4367 3295C 4507 3017 4576 2768 4600 2459C 4605 2393 4614 2332 4621 2324C 4639 2302 4687 2306 4701 2332C 4715 2357 4707 2499 4684 2655C 4569 3433 4062 4092 3340 4403C 3203 4462 3198 4463 3172 4444z" stroke="none" fill="#000000" fill-rule="nonzero" />
        <path d="M820 2482C 784 2473 735 2453 710 2438C 643 2399 563 2310 527 2233C 497 2169 495 2158 495 2055C 495 1952 497 1941 527 1878C 565 1798 602 1749 653 1711L653 1711L690 1683L617 1656C 350 1559 136 1327 55 1046C 30 959 38 881 77 833C 93 812 122 786 141 775C 174 756 196 755 908 752C 1428 750 1653 753 1683 761C 1739 776 1804 842 1820 899C 1852 1018 1733 1284 1576 1443C 1484 1537 1345 1625 1235 1660C 1213 1667 1192 1674 1188 1676C 1185 1678 1208 1707 1241 1740C 1456 1954 1399 2317 1130 2448C 1021 2501 932 2511 820 2482zM1057 2368C 1126 2343 1204 2269 1240 2195C 1260 2153 1265 2130 1265 2055C 1265 1977 1261 1958 1237 1909C 1172 1777 1024 1698 883 1720C 767 1739 679 1803 628 1908C 599 1967 595 1984 595 2055C 596 2174 644 2268 738 2332C 827 2394 952 2408 1057 2368zM1057 1600C 1350 1552 1608 1333 1695 1057C 1727 956 1727 916 1695 885L1695 885L1671 860L931 860L192 860L166 891C 135 928 134 948 161 1036C 201 1166 266 1275 356 1365C 543 1553 806 1641 1057 1600z" stroke="none" fill="#000000" fill-rule="nonzero" />
        <path d="M3840 2489C 3766 2475 3669 2421 3613 2363C 3442 2189 3446 1910 3622 1738C 3653 1707 3676 1679 3672 1677C 3668 1674 3647 1667 3625 1660C 3603 1653 3558 1634 3525 1617C 3286 1498 3113 1285 3049 1030C 3030 956 3029 939 3040 900C 3056 842 3121 776 3177 761C 3207 753 3432 750 3952 752C 4664 755 4686 756 4719 775C 4836 844 4849 959 4763 1165C 4674 1379 4449 1589 4232 1661L4232 1661L4169 1682L4207 1710C 4276 1762 4336 1857 4361 1953C 4381 2033 4368 2157 4331 2235C 4295 2313 4210 2406 4142 2443C 4053 2492 3941 2509 3840 2489zM4075 2360C 4141 2328 4206 2261 4238 2192C 4275 2111 4276 1999 4238 1919C 4187 1809 4097 1740 3979 1721C 3836 1698 3688 1776 3623 1909C 3599 1958 3595 1977 3595 2055C 3595 2130 3600 2153 3620 2195C 3653 2264 3737 2343 3802 2369C 3876 2399 4004 2394 4075 2360zM4072 1596C 4372 1538 4609 1327 4699 1036C 4726 948 4725 928 4694 891L4694 891L4668 860L3929 860L3189 860L3165 885C 3133 916 3133 956 3165 1057C 3210 1199 3311 1343 3429 1434C 3619 1580 3850 1638 4072 1596z" stroke="none" fill="#000000" fill-rule="nonzero" />
        <path d="M1240 440C 1193 393 1216 371 1420 269C 1739 111 2062 36 2430 36C 2797 36 3119 110 3431 265C 3630 364 3655 384 3631 429C 3610 468 3587 463 3439 386C 3223 275 3034 211 2780 163C 2644 138 2216 138 2080 163C 1833 209 1620 281 1412 390C 1339 429 1275 460 1270 460C 1264 460 1251 451 1240 440z" stroke="none" fill="#000000" fill-rule="nonzero" />
	</g>
</g>
</svg>