<?xml version="1.0" standalone="no"?>
<!DOCTYPE svg PUBLIC "-//W3C//DTD SVG 20010904//EN"
 "http://www.w3.org/TR/2001/REC-SVG-20010904/DTD/svg10.dtd">
<svg version="1.0" xmlns="http://www.w3.org/2000/svg"
 width="488.000000pt" height="507.000000pt" viewBox="0 0 488.000000 507.000000"
 preserveAspectRatio="xMidYMid meet">

<g transform="translate(0.000000,507.000000) scale(0.100000,-0.100000)"
fill="#000000" stroke="none">
<path d="M2340 5019 c-107 -21 -224 -103 -286 -200 -65 -103 -82 -249 -44
-372 22 -72 89 -171 140 -207 36 -25 32 -32 -25 -50 -161 -51 -348 -196 -451
-352 -86 -129 -151 -313 -138 -387 14 -76 71 -141 141 -160 25 -7 285 -11 753
-11 468 0 728 4 753 11 68 18 127 84 140 155 8 41 -25 176 -62 259 -100 220
-315 418 -526 485 -57 18 -61 25 -25 50 51 36 118 135 140 207 101 326 -176
637 -510 572z m214 -119 c73 -28 147 -99 183 -175 23 -50 28 -73 28 -140 0
-93 -27 -164 -88 -232 -127 -140 -367 -140 -494 0 -163 181 -97 458 130 549
60 24 172 23 241 -2z m18 -774 c295 -58 523 -253 619 -529 37 -105 37 -146 3
-181 l-27 -26 -737 0 -737 0 -27 26 c-34 35 -34 76 3 181 81 234 266 418 502
499 134 45 270 55 401 30z"/>
<path d="M1582 4430 c-761 -309 -1288 -974 -1406 -1775 -23 -156 -31 -298 -17
-323 14 -26 62 -30 80 -8 7 8 16 69 21 135 24 309 93 558 233 836 162 324 409
605 717 818 107 73 289 171 395 213 83 32 105 49 105 80 0 19 -33 55 -50 54
-3 0 -38 -14 -78 -30z"/>
<path d="M3172 4444 c-26 -18 -29 -55 -4 -75 9 -8 44 -26 77 -38 33 -13 109
-49 169 -79 406 -206 749 -550 953 -957 140 -278 209 -527 233 -836 5 -66 14
-127 21 -135 18 -22 66 -18 80 8 14 25 6 167 -17 323 -115 778 -622 1437
-1344 1748 -137 59 -142 60 -168 41z"/>
<path d="M820 2482 c-36 -9 -85 -29 -110 -44 -67 -39 -147 -128 -183 -205 -30
-64 -32 -75 -32 -178 0 -103 2 -114 32 -177 38 -80 75 -129 126 -167 l37 -28
-73 -27 c-267 -97 -481 -329 -562 -610 -25 -87 -17 -165 22 -213 16 -21 45
-47 64 -58 33 -19 55 -20 767 -23 520 -2 745 1 775 9 56 15 121 81 137 138 32
119 -87 385 -244 544 -92 94 -231 182 -341 217 -22 7 -43 14 -47 16 -3 2 20
31 53 64 215 214 158 577 -111 708 -109 53 -198 63 -310 34z m237 -114 c69
-25 147 -99 183 -173 20 -42 25 -65 25 -140 0 -78 -4 -97 -28 -146 -65 -132
-213 -211 -354 -189 -116 19 -204 83 -255 188 -29 59 -33 76 -33 147 1 119 49
213 143 277 89 62 214 76 319 36z m0 -768 c293 -48 551 -267 638 -543 32 -101
32 -141 0 -172 l-24 -25 -740 0 -739 0 -26 31 c-31 37 -32 57 -5 145 40 130
105 239 195 329 187 188 450 276 701 235z"/>
<path d="M3840 2489 c-74 -14 -171 -68 -227 -126 -171 -174 -167 -453 9 -625
31 -31 54 -59 50 -61 -4 -3 -25 -10 -47 -17 -22 -7 -67 -26 -100 -43 -239
-119 -412 -332 -476 -587 -19 -74 -20 -91 -9 -130 16 -58 81 -124 137 -139 30
-8 255 -11 775 -9 712 3 734 4 767 23 117 69 130 184 44 390 -89 214 -314 424
-531 496 l-63 21 38 28 c69 52 129 147 154 243 20 80 7 204 -30 282 -36 78
-121 171 -189 208 -89 49 -201 66 -302 46z m235 -129 c66 -32 131 -99 163
-168 37 -81 38 -193 0 -273 -51 -110 -141 -179 -259 -198 -143 -23 -291 55
-356 188 -24 49 -28 68 -28 146 0 75 5 98 25 140 33 69 117 148 182 174 74 30
202 25 273 -9z m-3 -764 c300 -58 537 -269 627 -560 27 -88 26 -108 -5 -145
l-26 -31 -739 0 -740 0 -24 25 c-32 31 -32 71 0 172 45 142 146 286 264 377
190 146 421 204 643 162z"/>
<path d="M1240 440 c-47 -47 -24 -69 180 -171 319 -158 642 -233 1010 -233
367 0 689 74 1001 229 199 99 224 119 200 164 -21 39 -44 34 -192 -43 -216
-111 -405 -175 -659 -223 -136 -25 -564 -25 -700 0 -247 46 -460 118 -668 227
-73 39 -137 70 -142 70 -6 0 -19 -9 -30 -20z"/>
</g>
</svg>
