<?xml version="1.0" standalone="no"?>
<!DOCTYPE svg PUBLIC "-//W3C//DTD SVG 20010904//EN"
 "http://www.w3.org/TR/2001/REC-SVG-20010904/DTD/svg10.dtd">
<svg version="1.0" xmlns="http://www.w3.org/2000/svg"
 width="1321.000000pt" height="1321.000000pt" viewBox="0 0 1321.000000 1321.000000"
 preserveAspectRatio="xMidYMid meet">
<metadata>
Created by potrace 1.14, written by Peter Selinger 2001-2017
</metadata>
<g transform="translate(0.000000,1321.000000) scale(0.100000,-0.100000)"
fill="#000000" stroke="none">
<path d="M10976 10454 c-155 -28 -344 -109 -470 -203 -132 -97 -276 -269 -345
-411 -151 -309 -147 -692 10 -1000 80 -156 87 -173 82 -189 -4 -13 -3 -14 5
-1 6 8 8 18 5 24 -3 5 -1 6 6 2 6 -4 9 -11 6 -16 -3 -4 2 -13 10 -20 8 -7 15
-21 15 -31 0 -13 6 -17 20 -14 11 2 18 0 15 -4 -9 -15 68 -104 81 -93 4 4 4 1
0 -6 -10 -16 19 -62 39 -62 8 0 15 -5 15 -11 0 -6 7 -8 16 -5 8 3 12 2 9 -4
-3 -6 -1 -10 5 -10 7 0 9 -7 6 -16 -3 -8 -2 -13 2 -11 4 3 23 -4 42 -14 19
-11 31 -19 27 -19 -19 0 84 -69 153 -102 107 -52 140 -65 201 -82 30 -8 70
-20 89 -26 52 -17 332 -25 416 -11 206 32 421 127 563 250 158 136 245 249
315 406 15 33 31 68 36 77 5 9 22 63 37 120 26 96 28 116 27 288 0 112 -5 203
-12 230 -7 25 -15 56 -18 69 -28 130 -142 344 -232 436 -22 22 -42 48 -46 58
-3 10 -10 16 -14 13 -5 -3 -14 6 -20 19 -7 14 -15 25 -19 25 -5 0 -21 11 -37
25 -16 13 -32 22 -36 20 -4 -3 -7 3 -6 12 0 9 -6 18 -14 20 -13 4 -13 3 0 -6
8 -6 11 -11 6 -11 -14 0 -55 48 -47 56 3 4 0 4 -6 0 -14 -8 -45 6 -45 20 0 5
-5 8 -10 6 -6 -1 -19 7 -29 19 -10 12 -19 19 -19 15 0 -4 -9 -2 -21 4 -13 8
-18 17 -14 28 4 13 3 14 -5 6 -8 -8 -28 -2 -73 22 -78 43 -222 89 -333 109
-106 18 -282 18 -388 -1z m544 -237 c109 -32 154 -49 174 -66 9 -7 16 -10 16
-7 0 4 14 -3 32 -15 18 -13 28 -17 24 -8 -5 7 4 1 19 -16 14 -16 24 -25 21
-18 -5 8 0 8 19 0 14 -7 25 -16 25 -20 0 -5 5 -5 12 -1 7 4 8 3 4 -5 -4 -6 0
-14 11 -18 10 -4 23 -13 29 -21 7 -9 16 -12 24 -7 8 5 11 4 7 -2 -7 -11 61
-90 74 -86 5 2 6 -4 2 -13 -4 -10 2 -17 16 -21 28 -7 84 -108 122 -220 126
-368 26 -782 -256 -1056 -291 -284 -711 -369 -1098 -221 -37 14 -73 31 -80 37
-7 7 -19 13 -27 15 -22 5 -41 23 -34 33 3 5 0 8 -8 7 -7 -2 -12 3 -10 11 3 12
0 12 -12 2 -11 -9 -16 -9 -22 0 -4 8 -3 9 4 5 7 -4 12 -3 12 2 0 12 -29 24
-41 17 -5 -4 -6 0 -3 8 3 8 -2 17 -11 21 -10 3 -15 13 -12 20 4 10 0 13 -14
11 -11 -2 -19 2 -19 10 0 8 -6 18 -14 22 -7 4 -18 18 -25 31 -7 12 -16 20 -22
17 -5 -4 -9 3 -9 14 0 12 -4 21 -8 21 -5 0 -14 16 -22 34 -7 19 -17 34 -22 33
-5 -1 -15 14 -23 33 -89 234 -105 302 -105 460 0 380 207 712 551 886 73 36
204 78 309 98 14 2 88 3 165 1 113 -3 156 -8 225 -28z"/>
<path d="M12130 10026 c0 -2 8 -10 18 -17 15 -13 16 -12 3 4 -13 16 -21 21
-21 13z"/>
<path d="M1567 9810 c-372 -67 -659 -347 -732 -712 -30 -150 -12 -373 40 -494
9 -21 18 -43 19 -49 1 -5 11 -26 21 -45 11 -19 20 -37 20 -40 4 -18 30 -60 37
-60 4 0 18 -22 30 -50 12 -27 28 -50 35 -50 8 0 11 -4 8 -10 -3 -5 -1 -10 5
-10 6 0 8 -5 5 -10 -4 -6 -1 -9 6 -8 7 2 18 -7 24 -20 7 -13 22 -30 34 -39 13
-8 20 -21 17 -30 -3 -8 -1 -11 5 -8 5 4 19 -3 30 -16 10 -12 19 -18 20 -13 0
5 4 -1 9 -13 5 -13 17 -23 25 -23 9 0 14 -4 11 -8 -3 -5 16 -19 42 -32 26 -13
49 -27 52 -31 8 -12 173 -86 209 -94 17 -3 31 -12 31 -18 0 -8 3 -8 11 0 9 9
18 9 38 -1 62 -32 358 -14 484 29 163 55 313 161 420 295 29 36 55 67 59 68 5
2 8 9 8 17 0 7 7 18 15 25 8 7 15 20 15 30 0 9 10 29 21 44 12 15 19 30 15 33
-3 4 0 13 8 22 8 9 15 18 15 21 0 3 2 12 4 20 8 24 28 102 36 141 15 71 13
273 -4 345 -23 101 -55 191 -89 252 -17 29 -36 63 -43 75 -7 12 -18 26 -26 32
-8 5 -15 15 -16 20 -4 20 -83 105 -92 99 -5 -3 -8 -2 -7 3 4 10 -38 53 -52 53
-5 0 -10 5 -10 11 0 5 -4 8 -9 5 -4 -3 -13 6 -20 20 -6 14 -17 24 -23 22 -16
-6 -49 23 -41 35 3 6 1 7 -6 3 -18 -12 -83 33 -76 53 5 12 3 13 -5 5 -8 -8
-32 -1 -88 27 -124 60 -207 80 -362 84 -74 2 -157 0 -183 -5z m398 -225 c68
-16 196 -63 205 -75 3 -4 15 -10 28 -14 12 -4 22 -12 22 -17 0 -6 4 -8 9 -4 5
3 12 1 16 -5 4 -6 10 -8 15 -5 4 3 7 -3 6 -12 0 -10 4 -18 9 -18 6 0 25 -15
43 -32 17 -18 37 -33 43 -33 8 0 7 -5 -2 -17 -7 -10 -9 -15 -4 -10 10 8 55
-31 55 -48 0 -6 8 -20 18 -31 10 -10 19 -22 20 -27 1 -4 9 -24 18 -45 41 -98
59 -250 44 -364 -39 -284 -204 -510 -463 -632 -122 -58 -296 -85 -422 -66
-106 16 -222 53 -260 83 -5 4 -19 15 -30 23 -11 9 -14 12 -6 8 9 -5 12 -3 7 5
-4 6 -13 10 -19 9 -21 -4 -59 23 -53 38 3 8 0 13 -7 11 -7 -1 -11 4 -9 11 1 8
-2 11 -8 7 -5 -3 -10 -2 -10 4 0 5 -9 12 -20 16 -11 3 -19 12 -17 18 1 7 -3
11 -9 10 -6 -1 -9 8 -7 21 3 13 -1 27 -8 31 -8 5 -10 4 -5 -3 4 -7 5 -12 2
-12 -2 0 -15 20 -27 45 -12 24 -27 41 -32 38 -6 -3 -7 -2 -4 3 3 5 -8 50 -25
99 -69 202 -43 444 67 628 82 136 209 249 352 313 133 59 333 80 468 49z"/>
<path d="M1283 8292 c-9 -5 -6 -12 10 -21 19 -13 21 -12 10 1 -7 8 -10 18 -6
21 9 9 1 8 -14 -1z"/>
<path d="M8110 9618 c-288 -27 -653 -156 -899 -318 -144 -94 -224 -161 -362
-301 -316 -320 -505 -699 -580 -1164 -21 -125 -18 -485 4 -620 33 -204 103
-424 191 -605 63 -129 86 -171 118 -212 15 -20 24 -38 21 -42 -4 -3 0 -6 7 -6
7 0 11 -3 7 -6 -3 -3 1 -13 9 -22 35 -40 94 -122 88 -122 -4 0 3 -9 15 -19 13
-11 20 -25 16 -31 -4 -7 2 -14 14 -17 12 -3 21 -9 21 -14 0 -10 29 -43 107
-126 28 -30 52 -57 52 -61 1 -4 4 -7 9 -7 4 -1 26 -19 49 -40 93 -89 132 -122
138 -117 3 3 5 0 5 -6 0 -6 27 -27 60 -47 33 -20 66 -42 73 -49 12 -12 111
-69 202 -115 254 -130 527 -202 835 -221 197 -12 346 0 565 44 116 24 287 79
392 127 27 12 66 30 88 39 47 20 239 135 310 186 71 51 220 182 285 251 168
177 282 340 373 533 30 63 65 138 78 165 l23 50 7 -150 c8 -172 31 -295 83
-438 31 -86 100 -232 116 -247 9 -9 64 -94 79 -122 7 -16 17 -28 22 -28 5 0 9
-5 9 -10 0 -19 148 -185 214 -240 37 -30 78 -65 92 -77 14 -13 31 -23 39 -23
7 0 15 -3 17 -7 8 -18 193 -112 272 -138 159 -52 291 -75 446 -76 408 -3 798
179 1047 489 21 26 41 49 44 52 4 3 27 37 52 75 80 125 150 294 177 430 6 33
16 79 21 102 15 68 11 321 -7 414 -44 236 -143 451 -291 628 -60 72 -229 232
-237 224 -2 -3 -16 6 -31 19 -15 13 -30 23 -33 23 -4 1 -29 16 -55 35 -70 51
-160 97 -267 140 -324 130 -673 129 -999 -1 -291 -116 -545 -358 -691 -659
l-41 -85 7 55 c3 30 8 73 11 95 12 95 17 289 11 394 -18 272 -97 558 -224 813
-24 48 -44 94 -44 103 0 8 -5 15 -11 15 -5 0 -7 5 -3 12 4 6 3 8 -4 4 -6 -4
-17 7 -26 26 -21 43 -145 208 -157 208 -5 0 -9 6 -9 14 0 26 -298 315 -351
340 -10 5 -19 13 -19 18 0 4 -6 8 -13 8 -7 0 -26 14 -42 30 -16 17 -32 30 -37
30 -5 0 -30 15 -56 33 -140 97 -309 184 -487 250 -287 107 -613 147 -945 115z
m580 -224 c140 -19 197 -32 360 -84 131 -42 373 -158 430 -207 11 -10 23 -16
27 -15 3 2 9 0 12 -5 12 -17 89 -73 101 -73 6 0 8 -4 5 -10 -3 -5 1 -10 9 -10
9 0 16 -4 16 -10 0 -5 5 -10 12 -10 7 0 66 -55 132 -122 67 -68 125 -122 129
-120 5 1 6 -2 2 -7 -7 -13 30 -52 41 -43 4 4 5 0 2 -9 -4 -9 2 -20 12 -27 20
-12 103 -145 106 -170 2 -7 10 -22 19 -32 22 -25 97 -198 129 -300 76 -240
108 -508 88 -749 -38 -464 -206 -854 -513 -1193 -625 -690 -1627 -857 -2431
-404 -37 21 -71 42 -74 47 -3 6 -17 14 -31 20 -15 5 -21 13 -17 21 5 7 2 9 -8
5 -10 -3 -28 7 -48 28 -18 19 -38 31 -44 28 -6 -3 -8 -3 -4 1 6 7 -16 31 -91
98 -28 25 -80 82 -153 166 -16 18 -28 37 -28 44 0 6 -3 9 -6 5 -11 -11 -125
164 -166 256 -12 26 -25 47 -30 47 -4 0 -8 6 -8 13 0 7 -9 31 -20 52 -125 241
-202 634 -180 918 28 366 112 645 278 922 125 208 344 443 541 582 36 26 68
50 71 53 3 4 12 10 20 13 8 4 35 19 60 33 52 30 172 91 215 109 102 44 159 63
255 88 165 42 192 48 269 54 42 3 78 7 80 9 12 11 332 2 431 -12z m3365 -1732
c128 -21 342 -112 445 -188 91 -68 105 -80 170 -144 142 -140 217 -279 260
-482 87 -407 -34 -815 -328 -1108 -54 -53 -124 -115 -157 -137 -312 -210 -666
-273 -1016 -180 -76 20 -183 64 -242 99 -26 15 -50 28 -52 28 -23 0 -226 208
-271 277 -60 91 -62 94 -95 163 -85 179 -109 268 -116 446 -7 161 10 302 54
433 33 100 89 222 105 229 5 2 8 7 8 12 0 24 94 144 175 224 194 193 411 299
690 340 48 7 305 -2 370 -12z"/>
<path d="M4065 9594 c-254 -40 -491 -133 -709 -279 -53 -35 -103 -70 -110 -77
-7 -7 -35 -31 -61 -53 -88 -73 -181 -171 -239 -252 -21 -29 -42 -53 -48 -53
-5 0 -7 -4 -4 -9 3 -5 -1 -15 -10 -22 -8 -7 -22 -26 -31 -43 -9 -17 -32 -56
-52 -86 -19 -30 -35 -58 -36 -61 -1 -18 -49 -108 -56 -104 -4 3 -10 -13 -14
-35 -4 -22 -11 -40 -16 -40 -6 0 -7 -5 -4 -10 4 -6 2 -16 -3 -23 -5 -7 -12
-25 -15 -42 -2 -16 -14 -66 -26 -110 -63 -232 -70 -599 -15 -822 35 -147 122
-379 173 -463 13 -21 25 -54 22 -63 -1 -5 3 -6 8 -3 8 5 24 -19 18 -27 -1 -1
8 -13 21 -27 21 -23 26 -35 23 -53 -1 -5 4 -5 10 -1 9 5 10 2 6 -10 -4 -11 -3
-15 4 -11 6 4 13 -2 16 -14 3 -11 8 -19 12 -17 4 3 19 -18 35 -45 16 -29 32
-47 38 -43 6 4 8 3 5 -3 -4 -6 13 -32 37 -59 25 -27 42 -53 39 -58 -4 -5 1 -7
10 -3 10 4 16 2 14 -5 -1 -6 13 -22 32 -35 19 -12 30 -23 26 -23 -5 0 22 -29
61 -65 38 -35 75 -65 82 -65 7 0 10 -5 7 -10 -4 -6 7 -15 24 -21 17 -6 31 -15
31 -20 0 -5 7 -12 16 -16 8 -3 44 -25 79 -48 152 -102 400 -203 600 -244 202
-42 549 -43 700 -1 17 4 57 13 90 20 86 18 196 57 301 107 50 23 94 43 98 43
11 0 219 140 286 192 91 71 234 220 330 344 49 64 143 238 203 374 35 80 78
223 101 340 41 210 34 541 -16 730 -44 167 -58 213 -81 263 -13 29 -37 80 -52
115 -16 34 -32 62 -37 62 -4 0 -8 9 -8 19 0 11 -6 26 -13 33 -8 7 -22 30 -32
51 -9 20 -21 34 -26 31 -5 -3 -9 -1 -9 5 0 16 -69 121 -80 121 -6 0 -10 5 -10
11 0 7 -13 25 -30 41 -16 15 -30 31 -30 34 0 3 -16 21 -35 40 -19 18 -35 39
-35 45 0 7 -3 10 -6 6 -3 -3 -18 5 -32 18 -15 13 -37 32 -49 43 -13 11 -23 24
-23 30 0 6 -13 16 -29 23 -16 7 -28 16 -25 20 4 7 -15 18 -28 15 -3 0 -18 11
-32 27 -14 15 -32 27 -41 27 -9 0 -13 5 -10 10 3 6 -1 10 -9 10 -9 0 -16 4
-16 9 0 5 -22 20 -48 34 -27 14 -90 50 -142 81 -51 31 -99 56 -107 56 -7 0
-32 9 -53 20 -41 21 -217 81 -280 96 -19 4 -39 9 -45 10 -147 35 -473 44 -640
18z m588 -218 c176 -29 340 -78 462 -140 39 -20 73 -36 77 -36 11 0 191 -121
221 -148 15 -14 27 -23 27 -19 0 4 9 -1 19 -10 11 -9 18 -21 14 -25 -3 -5 4
-12 15 -15 11 -3 23 -12 26 -20 3 -8 11 -11 18 -7 8 5 9 2 5 -9 -4 -11 -1 -17
9 -17 8 0 12 -4 9 -10 -3 -6 1 -7 9 -4 10 4 19 -2 25 -17 5 -13 31 -47 57 -76
68 -73 71 -77 66 -92 -3 -8 0 -11 7 -7 6 4 11 1 11 -7 0 -7 8 -22 18 -33 29
-31 100 -170 136 -268 73 -197 101 -383 93 -628 -6 -229 -49 -413 -142 -614
-102 -219 -201 -351 -433 -575 -27 -26 -162 -122 -227 -161 -157 -94 -351
-168 -535 -204 -146 -29 -497 -27 -635 4 -93 21 -217 57 -240 71 -5 3 -15 6
-20 7 -24 4 -175 77 -175 85 0 5 -8 9 -19 9 -10 0 -30 11 -45 25 -26 24 -65
49 -78 50 -3 0 -10 4 -15 9 -5 5 -2 6 7 2 8 -4 6 -1 -4 8 -10 8 -23 13 -29 9
-6 -3 -7 -1 -3 5 3 5 2 12 -3 14 -12 4 -106 85 -134 116 -12 13 -37 40 -54 59
-18 19 -33 39 -33 44 0 5 -4 9 -10 9 -5 0 -10 7 -10 15 0 8 -8 15 -17 15 -9 0
-14 2 -11 5 3 3 -19 42 -48 87 -134 201 -217 425 -254 688 -14 98 -9 355 9
470 13 82 63 264 88 320 126 285 288 508 478 660 67 53 224 158 270 180 17 8
37 19 45 25 8 6 49 24 90 39 41 16 91 34 110 41 200 76 528 107 753 71z"/>
<path d="M1130 7885 c-200 -38 -358 -100 -510 -200 -367 -242 -590 -654 -590
-1092 0 -247 76 -510 205 -709 22 -32 38 -62 37 -66 -1 -5 3 -8 9 -8 6 0 8 -7
5 -16 -3 -8 -2 -13 3 -10 13 9 34 -21 25 -36 -4 -7 -4 -10 0 -6 8 7 30 -11 56
-47 14 -18 14 -19 -2 -7 -12 10 -18 10 -24 1 -4 -7 -3 -9 3 -6 12 8 75 -58 65
-68 -3 -3 1 -3 10 0 9 4 19 1 24 -6 5 -8 3 -10 -7 -4 -28 16 105 -109 191
-178 72 -59 264 -159 365 -190 187 -58 212 -61 415 -62 261 0 381 25 594 124
66 31 222 128 257 160 9 9 42 39 74 66 131 115 262 306 336 490 80 198 112
501 75 705 -21 114 -78 300 -103 332 -5 7 -16 29 -23 48 -19 50 -86 164 -115
196 -5 6 -19 23 -30 39 -37 52 -167 175 -177 168 -6 -3 -8 -2 -5 4 4 6 -1 19
-9 29 -9 10 -13 13 -9 7 10 -20 -9 -15 -28 7 -9 11 -23 20 -31 20 -8 0 -18 5
-22 12 -5 7 -3 8 6 3 8 -5 11 -4 7 2 -4 6 -20 16 -37 23 -18 8 -29 19 -28 29
2 10 -4 16 -17 16 -11 1 -45 17 -75 37 -124 80 -291 148 -450 183 -105 23
-372 29 -470 10z m550 -231 c36 -8 74 -17 84 -20 11 -2 39 -12 62 -23 23 -11
54 -23 68 -27 14 -3 26 -10 26 -15 0 -5 7 -5 17 -2 12 5 14 3 8 -7 -6 -9 -4
-11 4 -6 7 5 20 1 29 -7 9 -8 31 -21 47 -30 17 -8 43 -27 58 -41 16 -15 32
-24 36 -21 5 2 20 -9 35 -26 15 -16 31 -27 36 -24 6 3 7 -1 4 -10 -4 -9 -3
-15 2 -13 17 5 56 -30 49 -43 -5 -7 -4 -10 3 -5 13 8 35 -28 24 -39 -4 -4 3
-2 15 4 19 10 22 9 17 -4 -4 -8 0 -17 9 -21 8 -3 21 -18 27 -34 7 -16 17 -28
23 -27 6 1 11 -4 12 -11 0 -7 7 -17 15 -22 8 -5 11 -10 7 -10 -5 0 -1 -7 8
-16 9 -9 14 -23 11 -31 -3 -8 -2 -12 3 -8 11 6 60 -117 89 -225 68 -248 42
-548 -69 -796 -139 -312 -429 -565 -753 -658 -299 -87 -594 -65 -868 64 -15 7
-25 17 -21 23 3 6 1 7 -5 3 -12 -7 -75 27 -67 37 3 4 2 5 -1 2 -11 -7 -45 15
-39 25 3 6 -1 7 -9 4 -9 -3 -16 -1 -16 5 0 6 -6 11 -14 11 -8 0 -18 5 -22 12
-5 7 -2 9 7 4 8 -4 6 -1 -3 7 -10 8 -18 19 -18 26 0 6 -4 11 -10 11 -5 0 -10
8 -11 18 0 9 -3 12 -5 5 -6 -13 -75 52 -71 66 1 5 -13 25 -30 44 -18 20 -33
41 -33 47 0 5 -3 10 -7 10 -5 0 -17 18 -27 40 -10 22 -23 37 -27 34 -5 -3 -9
5 -9 18 0 13 -4 28 -10 34 -17 17 -60 134 -87 234 -45 169 -42 426 6 600 23
83 97 254 117 271 8 6 14 17 14 23 0 13 2 16 88 126 177 227 450 384 747 430
85 13 347 3 425 -16z m-1130 -147 c0 -2 -10 -12 -22 -23 l-23 -19 19 23 c18
21 26 27 26 19z m-167 -190 c3 -8 -1 -14 -8 -14 -7 0 -11 6 -8 14 3 7 6 13 8
13 2 0 5 -6 8 -13z"/>
<path d="M8562 4758 c-171 -14 -322 -81 -436 -194 -119 -119 -167 -230 -174
-404 -5 -133 6 -199 47 -287 87 -183 252 -271 711 -378 137 -32 231 -74 261
-117 54 -75 25 -185 -64 -245 -62 -41 -139 -57 -257 -51 -103 5 -192 33 -248
79 -37 30 -88 103 -103 149 -6 19 -14 38 -18 42 -5 6 -429 -86 -438 -95 -1 -2
6 -29 16 -60 92 -266 288 -424 599 -483 119 -22 370 -15 492 16 187 46 332
146 431 297 66 101 90 176 96 302 9 163 -26 273 -126 398 -101 127 -246 193
-601 273 -207 47 -259 68 -304 123 -26 32 -30 46 -30 91 1 73 26 111 94 144
50 25 65 27 170 27 99 0 122 -3 165 -23 64 -29 126 -90 155 -153 13 -27 28
-49 34 -49 15 0 379 121 388 129 5 4 -13 48 -38 99 -137 273 -423 402 -822
370z"/>
<path d="M220 3735 l0 -1005 240 0 240 0 0 369 0 369 283 5 c316 6 363 13 481
74 80 42 178 133 219 204 40 68 77 182 89 275 37 270 -93 522 -327 638 -122
60 -289 75 -852 76 l-373 0 0 -1005z m931 602 c53 -24 97 -64 122 -111 17 -32
22 -58 22 -121 0 -90 -19 -136 -77 -192 -59 -57 -100 -66 -325 -71 l-203 -4 0
262 0 262 213 -4 c170 -3 219 -7 248 -21z"/>
<path d="M2350 4735 c0 -3 -115 -364 -256 -803 -140 -438 -283 -882 -316 -987
-33 -104 -63 -196 -65 -202 -4 -10 41 -13 205 -13 l211 0 26 88 c15 48 43 140
62 205 l36 117 321 -2 321 -3 60 -202 60 -203 253 0 c192 0 252 3 252 12 0 11
-144 476 -435 1403 -57 182 -122 390 -145 463 l-41 132 -275 0 c-151 0 -274
-2 -274 -5z m344 -930 l83 -280 -200 -3 c-110 -1 -201 -1 -203 1 -2 2 43 155
99 340 l102 337 18 -58 c10 -31 55 -183 101 -337z"/>
<path d="M3730 3736 l0 -1006 240 0 240 0 0 395 0 395 166 -2 166 -3 139 -360
c76 -198 144 -375 150 -392 l11 -33 264 0 c145 0 264 1 264 3 0 1 -83 200
-184 442 l-184 439 54 31 c127 70 212 163 255 274 30 81 43 199 30 293 -20
153 -69 248 -180 358 -64 63 -89 80 -151 104 -138 53 -190 57 -757 63 l-523 5
0 -1006z m996 612 c36 -20 86 -74 111 -121 21 -41 22 -149 1 -198 -23 -53 -77
-110 -128 -133 -40 -18 -69 -21 -272 -24 l-228 -4 0 252 0 252 243 -4 c202 -3
247 -6 273 -20z"/>
<path d="M5500 4535 l0 -205 250 0 250 0 0 -800 0 -800 240 0 240 0 0 800 0
800 248 2 247 3 0 200 0 200 -737 3 -738 2 0 -205z"/>
<path d="M7170 3735 l0 -1005 240 0 240 0 -2 1003 -3 1002 -237 3 -238 2 0
-1005z"/>
<path d="M10190 4735 c0 -3 -115 -364 -256 -803 -140 -438 -283 -882 -316
-987 -33 -104 -63 -196 -65 -202 -4 -10 41 -13 205 -13 l211 0 26 88 c15 48
43 140 62 205 l36 117 321 -2 321 -3 60 -202 60 -203 253 0 c192 0 252 3 252
12 0 11 -144 476 -435 1403 -57 182 -122 390 -145 463 l-41 132 -275 0 c-151
0 -274 -2 -274 -5z m344 -930 l83 -280 -200 -3 c-110 -1 -201 -1 -203 1 -2 2
43 155 99 340 l102 337 18 -58 c10 -31 55 -183 101 -337z"/>
<path d="M11570 3735 l0 -1005 185 0 185 0 0 663 c0 649 1 661 19 632 17 -28
213 -365 447 -770 54 -93 129 -224 167 -290 39 -66 84 -145 102 -175 l31 -55
207 -3 207 -2 -2 1002 -3 1003 -182 3 -183 2 -2 -577 -3 -578 -104 180 c-57
99 -181 315 -276 480 -95 165 -198 343 -228 395 l-55 95 -256 3 -256 2 0
-1005z"/>
</g>
</svg>
